SplineFontDB: 3.0
FontName: Nobile-bold002
FullName: Nobile-bold002
FamilyName: Nobile-bold002
Weight: Bold
Copyright: Copyright (c) 2007 by vernon adams. All rights reserved.
Version: 1.000;PS 001.000;hotconv 1.0.38
ItalicAngle: 0
UnderlinePosition: -292
UnderlineWidth: 40
Ascent: 1638
Descent: 410
LayerCount: 2
Layer: 0 0 "Back"  1
Layer: 1 0 "Fore"  0
NeedsXUIDChange: 1
XUID: [1021 23 736606225 10823477]
FSType: 0
OS2Version: 2
OS2_WeightWidthSlopeOnly: 0
OS2_UseTypoMetrics: 1
CreationTime: 1270427763
ModificationTime: 1273356825
PfmFamily: 17
TTFWeight: 700
TTFWidth: 5
LineGap: 117
VLineGap: 0
Panose: 2 0 0 0 0 0 0 0 0 0
OS2TypoAscent: -121
OS2TypoAOffset: 1
OS2TypoDescent: -47
OS2TypoDOffset: 1
OS2TypoLinegap: 117
OS2WinAscent: -899
OS2WinAOffset: 1
OS2WinDescent: 109
OS2WinDOffset: 1
HheadAscent: -1921
HheadAOffset: 1
HheadDescent: 737
HheadDOffset: 1
OS2SubXSize: 1434
OS2SubYSize: 1331
OS2SubXOff: 0
OS2SubYOff: 287
OS2SupXSize: 1434
OS2SupYSize: 1331
OS2SupXOff: 0
OS2SupYOff: 977
OS2StrikeYSize: 102
OS2StrikeYPos: 512
OS2Vendor: 'pyrs'
OS2CodePages: 00000001.00000000
OS2UnicodeRanges: 00000001.00000000.00000000.00000000
Lookup: 4 0 1 "'liga' Standard Ligatures lookup 0"  {"'liga' Standard Ligatures lookup 0-1"  } ['liga' ('DFLT' <'dflt' > 'cyrl' <'dflt' > 'grek' <'dflt' > 'latn' <'dflt' > ) ]
Lookup: 258 0 0 "'kern' Horizontal Kerning in Latin lookup 0"  {"'kern' Horizontal Kerning in Latin lookup 0 subtable"  } ['kern' ('latn' <'dflt' > ) ]
DEI: 91125
ShortTable: cvt  2
  68
  1297
EndShort
ShortTable: maxp 16
  1
  0
  737
  108
  17
  83
  4
  2
  0
  1
  1
  0
  64
  46
  3
  3
EndShort
LangName: 1033 "" "" "Regular" "" "" "Version 1.000;PS 001.000;hotconv 1.0.38" "" "Nobile-bold is a trademark of vernon adams." "vernon adams" "" "Copyright (c) 2007 by vernon adams. All rights reserved." "" "" "" "" "" "Nobile-bold" "Bold" 
GaspTable: 2 5 3 65535 3
Encoding: iso8859-10
UnicodeInterp: none
NameList: Adobe Glyph List
DisplaySize: -48
AntiAlias: 1

StartChar: exclam
Encoding: 33 33 1
Width: 792
GlyphClass: 2
Flags: W
HStem: -25 316<252.76 494.333>
VStem: 199 349<27.7527 238.247> 272 210<352 513.717>
LayerCount: 2
Fore
SplineSet
199 133 m 4xc0
 199 224.807 284.194 291 373.5 291 c 4
 463.056 291 548 224.807 548 133 c 4
 548 41.1934 463.056 -25 373.5 -25 c 4
 284.194 -25 199 41.1934 199 133 c 4xc0
586.463 1530.39 m 1
 482 352 l 1
 272 352 l 1xa0
 167.537 1530.39 l 1
 586.463 1530.39 l 1
EndSplineSet
EndChar

StartChar: numbersign
Encoding: 35 35 2
Width: 1344
GlyphClass: 2
Flags: W
HStem: 550 144<250 400 569 737 905 1071> 895 145<278 443 612 778 950 1094>
LayerCount: 2
Fore
SplineSet
737 550 m 1
 551 550 l 1
 518 295 l 1
 367 295 l 1
 400 550 l 1
 250 550 l 1
 250 694 l 1
 416 694 l 1
 443 895 l 1
 278 895 l 1
 278 1040 l 1
 463 1040 l 1
 494 1309 l 1
 643 1309 l 1
 612 1040 l 1
 801 1040 l 1
 829 1307 l 1
 981 1307 l 1
 950 1040 l 1
 1094 1040 l 1
 1094 895 l 1
 932 895 l 1
 905 694 l 1
 1071 694 l 1
 1071 550 l 1
 887 550 l 1
 856 295 l 1
 705 295 l 1
 737 550 l 1
569 694 m 1
 752 694 l 1
 778 895 l 1
 596 895 l 1
 569 694 l 1
EndSplineSet
EndChar

StartChar: percent
Encoding: 37 37 3
Width: 2184
GlyphClass: 2
Flags: W
HStem: -23 213<1398.44 1618.83> 647 203<1398.48 1619.48> 711 206<376.565 593.896> 1379 200<374.955 592.039>
VStem: 97 231<963.065 1328.66> 643.749 242.98<966.796 1329.7> 1105.81 247.34<235.934 599.001> 1666 223<238.243 599.361>
LayerCount: 2
Fore
SplineSet
1502.42 190 m 0xdf
 1643.92 190 1666 305.017 1666 385.215 c 0
 1666 511.845 1663.14 647 1508.96 647 c 0
 1403.7 647 1353.15 583.978 1353.15 417.601 c 0
 1353.15 250.371 1404.31 190 1502.42 190 c 0xdf
643.749 1150.25 m 0
 643.749 1331.13 579.682 1379 483.579 1379 c 0
 389.438 1379 328 1323.37 328 1150.25 c 0
 328 960.308 396.052 917 483.579 917 c 0xbf
 579.682 917 643.749 973.217 643.749 1150.25 c 0
492.768 -29.1152 m 5
 1260.12 1674.38 l 5
 1486.72 1591.56 l 5
 711.697 -106.832 l 5
 492.768 -29.1152 l 5
1527.48 -23 m 0
 1194.45 -23 1105.81 215.994 1105.81 397.438 c 0
 1105.81 787.22 1343.12 850 1501.33 850 c 0xdf
 1810.85 850 1889 614.252 1889 422.003 c 0
 1889 73.6621 1682.16 -23 1527.48 -23 c 0
97 1130.36 m 0
 97 1516.43 317.8 1579 475.952 1579 c 0
 801.387 1579 886.729 1343.6 886.729 1152.08 c 0
 886.729 963.812 806.041 711 483.579 711 c 0xbf
 172 711 97 973.823 97 1130.36 c 0
EndSplineSet
EndChar

StartChar: quotesingle
Encoding: 39 39 4
Width: 481
GlyphClass: 2
Flags: W
HStem: 1218 309<52 258>
VStem: 52 368<1218.36 1523.41> 52 343<1312.71 1527>
LayerCount: 2
Fore
SplineSet
52 1218 m 5xa0
 52 1527 l 5
 395 1527 l 5xa0
 411.667 1450.33 420 1377.83 420 1309.5 c 4xc0
 420 1128.51 334.588 1054.22 160 998 c 5
 94 1116 l 5
 258 1218 l 4
 52 1218 l 5xa0
EndSplineSet
EndChar

StartChar: parenleft
Encoding: 40 40 5
Width: 772
GlyphClass: 2
Flags: W
HStem: 1553 20G<441 583.508>
VStem: 117 331<374.851 1008.09>
LayerCount: 2
Back
SplineSet
563.349 -198.907 m 5
 311.485 -26.0612 113 270.838 113 670.5 c 4
 113 1049.25 252.818 1292.48 440.5 1480.5 c 5
 499.5 1533 l 6
 519.886 1550.79 538.386 1564.79 555 1575 c 5
 735.727 1378.69 l 5
 634.229 1281.84 542.684 1162.22 498.5 1035.5 c 4
 386.976 715.644 455.316 300.471 616.5 103.5 c 4
 650.283 62.2166 687.02 19.3163 719.385 -10.2817 c 5
 563.349 -198.907 l 5
EndSplineSet
Fore
SplineSet
117 693 m 0
 117 1093 315 1400 567 1573 c 1
 723 1384 l 1
 557 1242 448 999 448 693 c 0
 448 387 553 132 719 -10 c 1
 563 -199 l 1
 311 -26 117 293 117 693 c 0
EndSplineSet
EndChar

StartChar: parenright
Encoding: 41 41 6
Width: 772
GlyphClass: 2
Flags: W
HStem: 1553 20G<256.492 399>
VStem: 392 331<374.851 1008.09>
LayerCount: 2
Fore
SplineSet
723 693 m 0
 723 293 529 -26 277 -199 c 1
 121 -10 l 1
 287 132 392 387 392 693 c 0
 392 999 283 1242 117 1384 c 1
 273 1573 l 1
 525 1400 723 1093 723 693 c 0
EndSplineSet
EndChar

StartChar: asterisk
Encoding: 42 42 7
Width: 933
GlyphClass: 2
Flags: W
HStem: 1094 194<20.5 288.662 644.338 912.5>
LayerCount: 2
Fore
SplineSet
466.5 1405.06 m 1
 584.046 1637.61 l 1
 778.562 1528.08 l 1
 639.105 1288 l 1
 912.5 1288 l 1
 912.5 1094 l 1
 644.338 1094 l 1
 794.059 853.565 l 1
 600.898 745.623 l 1
 466.5 985.621 l 1
 332.102 745.623 l 1
 138.941 853.565 l 1
 288.662 1094 l 1
 20.5 1094 l 1
 20.5 1288 l 1
 293.895 1288 l 1
 154.438 1528.08 l 1
 348.954 1637.61 l 1
 466.5 1405.06 l 1
EndSplineSet
EndChar

StartChar: plus
Encoding: 43 43 8
Width: 897
GlyphClass: 2
Flags: W
HStem: 459 252<2 279 567 846>
VStem: 279 288<154 459 711 1016>
LayerCount: 2
Fore
SplineSet
846 459 m 1
 567 459 l 1
 567 154 l 1
 279 154 l 1
 279 459 l 1
 2 459 l 1
 2 711 l 1
 279 711 l 1
 279 1016 l 1
 567 1016 l 1
 567 711 l 1
 846 711 l 1
 846 459 l 1
EndSplineSet
EndChar

StartChar: comma
Encoding: 44 44 9
Width: 382
GlyphClass: 2
Flags: W
HStem: 0 309<33 219>
VStem: 33 316<0.793701 305.394> 33 295<0.793701 309>
LayerCount: 2
Fore
SplineSet
33 0 m 5xa0
 33 309 l 5
 328 309 l 5xa0
 342 232 349 160 349 92 c 4xc0
 351 -89 281 -164 141 -220 c 5
 87 -102 l 5
 219 0 l 4
 33 0 l 5xa0
EndSplineSet
EndChar

StartChar: period
Encoding: 46 46 10
Width: 364
GlyphClass: 2
Flags: W
HStem: -13 366<66.5604 297.44>
VStem: 9 346<46.9758 293.024>
LayerCount: 2
Back
SplineSet
55 299 m 5
 403 299 l 5
 403 -12 l 5
 55 -12 l 5
 55 299 l 5
EndSplineSet
Fore
SplineSet
9 170 m 4
 9 271.016 80.9844 353 182 353 c 4
 283.016 353 355 271.016 355 170 c 4
 355 68.9844 283.016 -13 182 -13 c 4
 80.9844 -13 9 68.9844 9 170 c 4
EndSplineSet
EndChar

StartChar: slash
Encoding: 47 47 11
Width: 1347
GlyphClass: 2
Flags: W
LayerCount: 2
Fore
SplineSet
217 -147 m 1
 825 1667 l 1
 1133 1667 l 1
 530 -147 l 1
 217 -147 l 1
EndSplineSet
EndChar

StartChar: zero
Encoding: 48 48 12
Width: 1370
GlyphClass: 2
Flags: W
HStem: -27 260<495.079 787.501> 946 260<496.323 778.462>
VStem: 53 330<364.116 817.966> 897 328<360.908 819.05>
LayerCount: 2
Fore
SplineSet
637.5 233 m 0
 838.384 233 897 393.635 897 601.5 c 0
 897 793.357 831.587 946 637 946 c 0
 441.449 946 381.163 776.564 383 592 c 0
 385.105 380.497 443.869 233 637.5 233 c 0
637 1206 m 0
 1024.07 1206 1225 967.662 1225 590 c 0
 1225 212.753 1020.13 -27 637.5 -27 c 0
 254.646 -27 53 214.941 53 590 c 0
 53 970.563 252.73 1206 637 1206 c 0
EndSplineSet
EndChar

StartChar: one
Encoding: 49 49 13
Width: 868
GlyphClass: 2
Flags: W
HStem: 0 21G<262 592>
VStem: 262 330<0 892.381>
LayerCount: 2
Fore
SplineSet
262 0 m 1
 262.267 892.381 l 1
 106 825 l 1
 12 1063 l 1
 369 1202 l 1
 592 1153 l 1
 592 0 l 1
 262 0 l 1
EndSplineSet
EndChar

StartChar: two
Encoding: 50 50 14
Width: 1058
GlyphClass: 2
Flags: W
HStem: 0 268<537 909> 930 260.85<258.635 573.154>
VStem: 606.863 333.137<672.218 896.936>
LayerCount: 2
Back
SplineSet
434.554 1190.85 m 4xb0
 755.018 1202.26 940 1093.99 940 824 c 4
 940 734.846 931.664 673.793 891.5 619 c 6
 816 516 l 5
 537 268 l 5
 909 268 l 5
 909 0 l 5
 51 0 l 5
 51 217 l 5
 376 491.5 l 5
 467.969 578.857 618 658.577 618 813 c 4
 618 891 567.667 930 467 930 c 4xb0
 366.361 930.18 193.167 870.071 118 836.5 c 5
 47 803.5 l 5
 47 1059 l 5
 99 1092 l 5xd0
 221.739 1148.47 333.636 1187.26 434.554 1190.85 c 4xb0
EndSplineSet
Fore
SplineSet
606.863 786.126 m 0
 606.863 880.383 562.986 930 452.638 930 c 0
 319 930 114 825 113.638 825 c 5
 23.2686 1063.98 l 5
 24 1064 264 1190.85 474.554 1190.85 c 0
 696 1190.85 940 1103.99 940 834 c 0
 940 676 871.199 564.486 681 396 c 2
 537 268 l 1
 909 268 l 1
 909 0 l 1
 51 0 l 1
 51 217 l 1
 376 491.5 l 2
 465.665 567.233 606.863 675.333 606.863 786.126 c 0
EndSplineSet
EndChar

StartChar: three
Encoding: 51 51 15
Width: 1150
GlyphClass: 2
Flags: W
HStem: -176 258<183.872 572.931> 424 246<322 520.732> 940 262<215.217 565.769>
VStem: 596 310.532<733.747 909.154> 618 324<124.079 340.475>
LayerCount: 2
Fore
SplineSet
596 829 m 0xf0
 596 906.556 524.434 940 431 940 c 0
 306.829 940 146.223 869.552 146 870 c 2
 32.1846 1098.75 l 1
 34.4199 1097.63 194 1202 406 1202 c 0
 700.321 1202 900.406 1105.58 906.532 822.994 c 0xf0
 908.177 702.998 834 579 705 547 c 1
 843 513 942 379 942 239 c 0
 942 -51.881 720.501 -176 424 -176 c 0
 196 -176 50.6309 -108 50.6309 -108 c 1
 132.896 144.434 l 2
 132.957 144.522 284 82 414 82 c 0
 542 82 618 118.677 618 236 c 0xe8
 618 360.083 471.719 428.447 322 424 c 1
 322 670 l 1
 461.652 669.853 596 711.5 596 829 c 0xf0
EndSplineSet
EndChar

StartChar: four
Encoding: 52 52 16
Width: 1130
GlyphClass: 2
Flags: W
HStem: 59 256<389 608 913 1087>
VStem: 608 305<-216 59 317 685>
LayerCount: 2
Fore
SplineSet
655 1217 m 1
 913 1151 l 1
 913 317 l 1
 1087 317 l 1
 1087 59 l 1
 913 59 l 1
 913 -217 l 1
 608 -216 l 1
 608 59 l 1
 47 59 l 1
 6 260 l 1
 655 1217 l 1
389 315 m 1
 608 315 l 1
 608 685 l 1
 389 315 l 1
EndSplineSet
EndChar

StartChar: five
Encoding: 53 53 17
Width: 1116
GlyphClass: 2
Flags: W
HStem: -182 254<280.307 642.279> 492 249<414.962 656.745> 924 245<412 936>
VStem: 131 281<699 924> 721 299<155.031 428.922>
LayerCount: 2
Fore
SplineSet
164 166 m 1
 164 166 328.475 76.854 494 72 c 0
 625.703 68.1378 722.27 146.92 721 279.5 c 0
 719.73 412.135 656.222 493.371 521 492 c 0
 453 492 368.841 464.03 270.841 410.697 c 1
 131 535 l 1
 131 1169 l 1
 936 1169 l 1
 936 924 l 1
 412 924 l 1
 412 699 l 1
 412 700 468 741 555 741 c 0
 839.784 741 1020 564.349 1020 283.5 c 0
 1020 -8.47988 799.817 -189.931 492 -182 c 0
 350.548 -178.355 199.771 -132.455 99.5 -90 c 1
 164 166 l 1
EndSplineSet
EndChar

StartChar: six
Encoding: 54 54 18
Width: 1298
GlyphClass: 2
Flags: W
HStem: -100 260<510.217 765.06> 621 253<527.452 784.203> 1338 20G<660.586 878.061>
VStem: 97.9987 326.001<265.361 549.146> 836.01 314.15<233.921 570.349>
LayerCount: 2
Fore
SplineSet
424 457 m 1
 428.045 279.018 484.646 160 647 160 c 0
 798.208 160 835.468 286.695 836.01 432.747 c 0
 836.01 556.36 773.564 621 655 621 c 0
 555.76 621 479.34 578.617 424 526 c 1
 424 457 l 1
1150.16 385.855 m 0
 1150.16 101.382 962.918 -100 649 -100 c 0
 297.839 -100 97.9987 150.693 97.9987 455.636 c 0
 98.501 968.843 449.171 1248.93 872 1358 c 1
 952 1094 l 1
 755.333 1054 613.333 976 526 860 c 1
 574 869.333 619.333 874 662 874 c 0
 960.781 874 1150.16 642.688 1150.16 385.855 c 0
EndSplineSet
EndChar

StartChar: seven
Encoding: 55 55 19
Width: 980
GlyphClass: 2
Flags: W
HStem: 911 258<-16 567>
LayerCount: 2
Fore
SplineSet
862 1169 m 1
 944 989 l 1
 356 -236 l 1
 59 -104 l 1
 567 911 l 1
 -16 911 l 1
 -16 1169 l 1
 862 1169 l 1
EndSplineSet
EndChar

StartChar: eight
Encoding: 56 56 20
Width: 1286
GlyphClass: 2
Flags: W
HStem: -127 264<464.519 763.481> 510 244<485.749 742.251> 1069 254<478.584 749.416>
VStem: 100 322<175.897 440.987> 127 313<793.357 1029.42> 788 313<793.357 1029.42> 806 322<175.897 440.987>
LayerCount: 2
Fore
SplineSet
614 1323 m 0xe8
 884 1323 1101 1191 1101 936 c 0xec
 1101 770 988 642 838 612 c 1
 985 591 1128 456 1128 275 c 0
 1128 -12 877 -127 614 -127 c 0
 351 -127 100 -12 100 275 c 0xf2
 100 456 243 591 390 612 c 1
 240 642 127 770 127 936 c 0
 127 1191 344 1323 614 1323 c 0xe8
614 137 m 0
 739 137 805 176 806 297 c 0
 806 422 743 510 614 510 c 0
 485 510 422 422 422 297 c 0xf2
 423 176 489 137 614 137 c 0
614 754 m 0
 730 754 787 803 788 922 c 0
 788 1028 719 1069 614 1069 c 0
 509 1069 440 1028 440 922 c 0xec
 441 803 498 754 614 754 c 0
EndSplineSet
EndChar

StartChar: nine
Encoding: 57 57 21
Width: 1265
GlyphClass: 2
Flags: W
HStem: 215 257.743<448.871 703.728> 928.098 260.092<458.344 712.229>
VStem: 76 314.869<524.203 850.043> 809 321<628.5 823.408>
LayerCount: 2
Back
SplineSet
390.869 653.629 m 4
 389.073 542.047 457.586 472.434 561.307 472.743 c 4
 639.346 472.743 746.174 489.499 769 540 c 6
 809 628.5 l 5
 806.624 791.118 747.07 928.098 585.802 928.098 c 4
 424.68 928.098 393.374 809.187 390.869 653.629 c 4
564.359 1188.19 m 4
 923.272 1188.19 1130 982.011 1130 633 c 4
 1130 461.791 1083.39 317.708 1011.5 196 c 4
 873.072 -38.3655 656.455 -195.222 354 -270 c 5
 276 -4 l 5
 488 39.3333 631.667 118.333 707 233 c 5
 662.333 221 615 215 565 215 c 4
 561.795 214.952 558.602 214.928 555.421 214.928 c 4
 267.077 214.928 76 410.418 76 697.5 c 4
 76 986.346 270.436 1188.19 564.359 1188.19 c 4
EndSplineSet
Fore
SplineSet
390.869 653.629 m 0
 389.073 542.047 457.586 472.434 561.307 472.743 c 0
 639.346 472.743 746.174 489.499 769 540 c 2
 809 628.5 l 1
 806.624 791.118 747.07 928.098 585.802 928.098 c 0
 424.68 928.098 393.374 809.187 390.869 653.629 c 0
565 215 m 0
 276.656 215 76 410.418 76 697.5 c 0
 76 986.346 270.436 1188.19 564.359 1188.19 c 0
 923.272 1188.19 1130 981 1130 633 c 0
 1130 102 687 -198 354 -270 c 1
 276 -4 l 1
 488 39.3333 631.667 118.333 707 233 c 1
 662.333 221 615 215 565 215 c 0
EndSplineSet
EndChar

StartChar: question
Encoding: 63 63 24
Width: 1101
GlyphClass: 2
Flags: W
HStem: -81 366<254.56 485.44> 1201.75 273.25<146.153 620.863>
VStem: 197 346<-21.0242 225.024 363 601.897>
LayerCount: 2
Back
SplineSet
662 1091.5 m 4
 640.944 1195.56 524.996 1201.75 416.492 1201.75 c 4
 294.804 1201.75 185.407 1171.49 103.991 1150.5 c 5
 103.991 1402 l 5
 222 1458 380.953 1475 496 1475 c 4
 799.054 1475 1004 1373.22 1004 1085 c 4
 1004 991.82 962.574 917.116 910 856.5 c 4
 796.456 724.515 556 554.4 556 554.5 c 13
 556 363 l 5
 205 363 l 5
 205 709 l 5
 388.669 803.658 705 879 662 1091.5 c 4
186 133 m 4
 186 41.1934 271.194 -25 360.5 -25 c 4
 450.056 -25 535 41.1934 535 133 c 4
 535 224.807 450.056 291 360.5 291 c 4
 271.194 291 186 224.807 186 133 c 4
EndSplineSet
Fore
SplineSet
197 102 m 4
 197 203.016 268.984 285 370 285 c 4
 471.016 285 543 203.016 543 102 c 4
 543 0.984375 471.016 -81 370 -81 c 4
 268.984 -81 197 0.984375 197 102 c 4
556 594.5 m 0
 556 363 l 1
 205 363 l 1
 205 709 l 1
 388.669 803.658 705 879 662 1091.5 c 0
 640.944 1195.56 524.996 1201.75 416.492 1201.75 c 0
 294.804 1201.75 189.416 1174 108 1153 c 1
 48 1396 l 1
 166.009 1452 380.953 1475 496 1475 c 0
 799.054 1475 1004 1373.22 1004 1085 c 0
 1004 991.82 996 751 556 594.5 c 0
EndSplineSet
EndChar

StartChar: at
Encoding: 64 64 25
Width: 1779
GlyphClass: 2
Flags: W
HStem: -132.82 218.82<642.017 1138.04> 194.725 196.275<710.228 922.735> 945.065 177.935<800.729 1126.64> 1227 231<694.829 1192.67>
VStem: 58 271<369.744 849.033> 437 227<439.617 795.04> 1112.98 218.45<679.996 935.533> 1112.98 135.02<427.343 484.156> 1473.08 257.92<547.065 951.412>
LayerCount: 2
Back
SplineSet
689 573 m 4
 689 480.362 724.733 381 809 381 c 4
 1026.15 381 1049.17 697.257 1087 922 c 5
 1046.33 928 1012.67 931 986 931 c 4
 822.577 935.212 689 744.392 689 573 c 4
928 1202 m 4
 562.028 1202 337 965.338 337 602 c 4
 337 271.406 563.789 86 918 86 c 4
 1008.67 86 1090 100.333 1162 129 c 5
 1214.04 -71.0391 l 5
 1029.68 -178.825 664.826 -147.469 463 -48.5 c 4
 243.067 59.3477 58 276.472 58 572 c 4
 58 992.899 289.552 1245.13 594.5 1373.5 c 4
 699.074 1417.52 818.667 1438 952 1438 c 4
 1392.09 1438 1721 1184.59 1721 735 c 4
 1721 454.603 1561.46 252.579 1307.5 230 c 4
 1160.19 216.903 1098.09 307.161 1096 445 c 5
 1062.59 308.565 961.815 204.868 817.368 195.555 c 4
 669.301 186.009 588.218 233.622 517.5 308.5 c 4
 457.06 372.496 427 471.851 427 599 c 4
 427 931.416 637.1 1133 945.5 1133 c 4
 1145.12 1133 1376.56 1047.23 1349 889 c 6
 1268 424 l 5
 1404.56 453.127 1460.99 529.317 1463 682.898 c 4
 1467.66 1038.24 1270.7 1202 928 1202 c 4
EndSplineSet
Fore
SplineSet
951.179 945.065 m 0xfc80
 789.958 945.065 664 828 664 573 c 0
 664 480.362 714.732 391 799 391 c 0
 1016.15 391 1089.17 701.257 1127 926 c 1
 1128 927 1029 945.065 951.179 945.065 c 0xfc80
878.961 -132.82 m 0
 391.066 -136.279 58 156.074 58 602 c 0
 58 1044 360 1458 952 1458 c 0
 1358.34 1458 1731 1203.59 1731 754 c 0
 1731 466.382 1558.84 228.919 1283.83 228.919 c 0
 1168.98 228.919 1112.98 309.741 1112.98 433.094 c 0xfd80
 1112.98 449.66 1113.99 466.993 1116 485 c 1
 1048.16 294.612 963.749 194.725 791.405 194.725 c 0
 643.685 194.725 437 274.521 437 599 c 0
 437 927.002 681 1123 945.5 1123 c 0
 1133.24 1123 1331.43 1055.98 1331.43 916.379 c 0xfe80
 1331.43 907.544 1330.64 898.418 1329 889 c 2
 1248 424 l 1xfd80
 1388.19 453.989 1473.08 552.103 1473.08 714.162 c 0
 1473.08 1061.12 1266.73 1227 928 1227 c 0
 562.028 1227 329 965.338 329 602 c 0
 329 246 563.789 86 918 86 c 0
 1008.67 86 1090 110.333 1162 139 c 1
 1214.04 -61.0391 l 1
 1129.34 -110.559 1006.54 -132.82 878.961 -132.82 c 0
EndSplineSet
EndChar

StartChar: A
Encoding: 65 65 26
Width: 1460
GlyphClass: 2
Flags: W
HStem: 0 21G<7 381.943 1078.06 1453> 350 170<527 933> 1557 20G<520.405 939.595>
LayerCount: 2
Fore
SplineSet
730 1346 m 1
 527 520 l 1
 933 520 l 1
 730 1346 l 1
527 1577 m 1
 933 1577 l 1
 1453 0 l 1
 1084 0 l 1
 980 350 l 1
 480 350 l 1
 376 0 l 1
 7 0 l 1
 527 1577 l 1
EndSplineSet
EndChar

StartChar: B
Encoding: 66 66 27
Width: 1366
GlyphClass: 2
Flags: W
HStem: 0 222<475 896.014> 741 197<475 866.358> 1374 203<475 864.933>
VStem: 127 348<222 741 938 1374> 963 311<1024.48 1290.68> 999 348<313.449 637.51>
LayerCount: 2
Fore
SplineSet
963 1160 m 0xf8
 963 1353.77 797.428 1363.86 601 1374 c 1
 475 1374 l 1
 475 938 l 1
 658 938 l 2
 861 938 963 1012 963 1160 c 0xf8
648 222 m 2
 873 222 999 262 999 468 c 0xf4
 999 669 885 741 666 741 c 2
 475 741 l 1
 475 222 l 1
 648 222 l 2
550 1577 m 1
 952.262 1575.01 1274 1535.93 1274 1183 c 0xf8
 1274 1001 1138 878 977 852 c 1
 1167.02 806.448 1346.61 719.102 1347 492 c 0
 1347 108 1076 0 663 0 c 2
 127 0 l 1
 127 1577 l 1
 550 1577 l 1
EndSplineSet
EndChar

StartChar: C
Encoding: 67 67 28
Width: 1302
GlyphClass: 2
Flags: W
HStem: -29 268<629.765 1021.66> 1336 266<628.969 1030.85>
VStem: 76 367<477.228 1117.9>
LayerCount: 2
Back
SplineSet
784 1605 m 4
 1273 1605 1492 1290 1492 789 c 4
 1492 288 1273 -28 784 -28 c 4
 295 -28 76 288 76 789 c 4
 76 1290 295 1605 784 1605 c 4
784 1339 m 4
 514.938 1339 442.498 1095.33 443.125 789 c 4
 442.498 482.668 514.938 238 784 238 c 4
 1053.06 238 1125.5 482.668 1124.88 789 c 4
 1125.5 1095.33 1053.06 1339 784 1339 c 4
EndSplineSet
Fore
SplineSet
443 782 m 0
 443 432 561 239 796 239 c 4
 1001 239 1144 349 1142.84 348.403 c 1
 1243 88 l 1
 1243 88 1089 -29 769 -29 c 0
 339 -29 76 267 76 782 c 0
 76 1326 333 1602 769 1602 c 0
 1089 1602 1243 1487 1243 1487 c 1
 1142.84 1226.6 l 1
 1144 1226 1015 1336 810 1336 c 0
 549 1336 443 1167 443 782 c 0
EndSplineSet
EndChar

StartChar: D
Encoding: 68 68 29
Width: 1462
GlyphClass: 2
Flags: W
HStem: 0 243<475 825.164> 1354 223<475 806.955>
VStem: 104 371<243 1354> 1046 368<468.654 1111.91>
LayerCount: 2
Back
SplineSet
1046 0 m 5
 1046 725 l 5
 456 725 l 5
 456 0 l 5
 85 0 l 5
 85 1577 l 5
 456 1577 l 5
 456 910 l 5
 1046 910 l 5
 1046 1577 l 5
 1414 1577 l 5
 1414 0 l 5
 1046 0 l 5
EndSplineSet
Fore
SplineSet
1046 784 m 0
 1046 1116.8 991 1354 567 1354 c 2
 475 1354 l 1
 475 243 l 1
 567 243 l 2
 982 243 1046 452.23 1046 784 c 0
1414 782 m 0
 1414 289.506 1170 0 606 0 c 2
 104 0 l 1
 104 1577 l 1
 606 1577 l 2
 1185 1577 1414 1272.65 1414 782 c 0
EndSplineSet
EndChar

StartChar: E
Encoding: 69 69 30
Width: 1234
GlyphClass: 2
Flags: W
HStem: 0 223<467 1186> 742 197<467 1086> 1374 203<467 1176>
VStem: 106 361<223 742 939 1374>
LayerCount: 2
Back
SplineSet
1065 0 m 5
 1065 725 l 5
 475 725 l 5
 475 0 l 5
 114 0 l 5
 114 1577 l 5
 475 1577 l 5
 475 910 l 5
 1065 910 l 5
 1065 1577 l 5
 1423 1577 l 5
 1423 0 l 5
 1065 0 l 5
EndSplineSet
Fore
SplineSet
1186 0 m 5
 106 0 l 5
 106 1577 l 5
 1176 1577 l 5
 1176 1374 l 5
 467 1374 l 5
 467 939 l 5
 1086 939 l 5
 1086 742 l 5
 467 742 l 5
 467 223 l 5
 1186 223 l 5
 1186 0 l 5
EndSplineSet
EndChar

StartChar: F
Encoding: 70 70 31
Width: 1214
GlyphClass: 2
Flags: W
HStem: 0 21G<104 475> 759 197<475 1128> 1307 270<475 1184>
VStem: 104 371<0 759 956 1307>
LayerCount: 2
Back
SplineSet
1065 0 m 5
 1065 725 l 5
 475 725 l 5
 475 0 l 5
 104 0 l 5
 104 1577 l 5
 475 1577 l 5
 475 910 l 5
 1065 910 l 5
 1065 1577 l 5
 1433 1577 l 5
 1433 0 l 5
 1065 0 l 5
EndSplineSet
Fore
SplineSet
475 759 m 1
 475 0 l 1
 104 0 l 5
 104 1577 l 5
 1184 1577 l 1
 1184 1307 l 1
 475 1307 l 1
 475 956 l 1
 1128 956 l 1
 1128 759 l 1
 475 759 l 1
EndSplineSet
EndChar

StartChar: G
Encoding: 71 71 32
Width: 1423
GlyphClass: 2
Flags: W
HStem: -37 277<633.211 975.86> 0 21G<1145.44 1376> 655 224<670 1088> 1335 264<651.87 1053.8>
VStem: 78 366<480.014 1090.81> 1088 288<287.614 655>
LayerCount: 2
Back
SplineSet
443 782 m 4
 443 1167 549 1336 810 1336 c 4
 1015 1336 1144 1226 1142.84 1226.6 c 5
 1243 1487 l 5
 1243 1487 1089 1602 769 1602 c 4
 333 1602 76 1326 76 782 c 4
 76 267 339 -29 769 -29 c 4
 1089 -29 1243 88 1243 88 c 5
 1142.84 348.403 l 5
 1144 349 1001 239 796 239 c 4
 561 239 443 432 443 782 c 4
EndSplineSet
Fore
SplineSet
1088 304.5 m 1xbc
 1088 655 l 1
 670 655 l 1
 670 879 l 1
 1376 879 l 1
 1376 0 l 1
 1151 0 l 1x7c
 1116 126 l 1
 1062 24 917.491 -37 747.5 -37 c 0
 342 -37 75.226 277.833 78 770 c 0
 80.8757 1280.2 315.735 1599 815 1599 c 4
 1155 1599 1284 1476 1286 1479 c 13
 1179 1233 l 5
 1179 1233 1005.33 1335 846 1335 c 4
 558.363 1335 444 1146 444 768 c 0
 444 468.71 549 240 778 240 c 0
 874.096 240 1011.29 271.059 1088 304.5 c 1xbc
EndSplineSet
EndChar

StartChar: H
Encoding: 72 72 33
Width: 1561
GlyphClass: 2
Flags: W
HStem: 0 21G<116 487 1077 1445> 725 185<487 1077> 1557 20G<116 487 1077 1445>
VStem: 116 371<0 725 910 1577> 1077 368<0 725 910 1577>
LayerCount: 2
Fore
SplineSet
1077 0 m 5
 1077 725 l 5
 487 725 l 5
 487 0 l 5
 116 0 l 5
 116 1577 l 5
 487 1577 l 5
 487 910 l 5
 1077 910 l 5
 1077 1577 l 5
 1445 1577 l 5
 1445 0 l 5
 1077 0 l 5
EndSplineSet
EndChar

StartChar: I
Encoding: 73 73 34
Width: 894
GlyphClass: 2
Flags: W
HStem: 0 170<92 262 633 802> 1407 170<92 262 633 802>
VStem: 262 371<170 1407>
LayerCount: 2
Back
SplineSet
1223 0 m 5
 1223 725 l 5
 633 725 l 5
 633 0 l 5
 262 0 l 5
 262 1577 l 5
 633 1577 l 5
 633 910 l 5
 1223 910 l 5
 1223 1577 l 5
 1591 1577 l 5
 1591 0 l 5
 1223 0 l 5
EndSplineSet
Fore
SplineSet
92 170 m 1
 262 170 l 1
 262 1407 l 1
 92 1407 l 1
 92 1577 l 1
 802 1577 l 1
 802 1407 l 1
 633 1407 l 5
 633 170 l 5
 802 170 l 1
 802 0 l 1
 92 0 l 1
 92 170 l 1
EndSplineSet
EndChar

StartChar: J
Encoding: 74 74 35
Width: 862
GlyphClass: 2
Flags: W
HStem: 1557 20G<348 719>
VStem: 348 371<287.7 1577>
LayerCount: 2
Back
SplineSet
1309 0 m 5
 1309 725 l 5
 719 725 l 5
 719 0 l 5
 348 0 l 5
 348 1577 l 5
 719 1577 l 5
 719 910 l 5
 1309 910 l 5
 1309 1577 l 5
 1677 1577 l 5
 1677 0 l 5
 1309 0 l 5
EndSplineSet
Fore
SplineSet
31 154 m 1
 266.964 181.437 348 254.841 348 506 c 2
 348 1577 l 1
 719 1577 l 5
 719 539 l 5
 730.282 100.441 539.22 -77.0949 125 -86 c 1
 31 154 l 1
EndSplineSet
EndChar

StartChar: K
Encoding: 75 75 36
Width: 1382
GlyphClass: 2
Flags: W
HStem: 0 21G<127 475 1026.15 1442> 1557 20G<127 475 982.012 1387>
VStem: 127 348<0 676 901 1577>
LayerCount: 2
Fore
SplineSet
475 676 m 1
 475 0 l 1
 127 0 l 1
 127 1577 l 1
 475 1577 l 1
 475 901 l 1
 556 901 l 1
 995 1577 l 1
 1387 1577 l 1
 824 780 l 1
 1442 0 l 1
 1041 0 l 1
 539 676 l 1
 475 676 l 1
EndSplineSet
EndChar

StartChar: L
Encoding: 76 76 37
Width: 1177
GlyphClass: 2
Flags: W
HStem: 0 242<477 1157> 1557 20G<106 477>
VStem: 106 371<242 1577>
LayerCount: 2
Back
SplineSet
1067 0 m 5
 1067 725 l 5
 477 725 l 5
 477 0 l 5
 106 0 l 5
 106 1577 l 5
 477 1577 l 5
 477 910 l 5
 1067 910 l 5
 1067 1577 l 5
 1435 1577 l 5
 1435 0 l 5
 1067 0 l 5
EndSplineSet
Fore
SplineSet
1157 0 m 1
 106 0 l 1
 106 1577 l 1
 477 1577 l 5
 477 242 l 5
 1157 242 l 1
 1157 0 l 1
EndSplineSet
EndChar

StartChar: M
Encoding: 77 77 38
Width: 1892
GlyphClass: 2
Flags: W
HStem: 0 21G<97 453 752.378 1107.62 1407 1763> 1557 20G<97 575.745 1283.96 1763>
VStem: 97 356<0 1085> 1407 356<0 1085>
LayerCount: 2
Fore
SplineSet
758 0 m 1
 453 1085 l 1
 453 0 l 1
 97 0 l 1
 97 1577 l 1
 570 1577 l 1
 920.909 355.344 l 1
 1290 1577 l 1
 1763 1577 l 1
 1763 0 l 1
 1407 0 l 1
 1407 1085 l 1
 1102 0 l 1
 758 0 l 1
EndSplineSet
EndChar

StartChar: N
Encoding: 78 78 39
Width: 1611
GlyphClass: 2
Flags: W
HStem: 0 21G<129 477 1068.03 1482> 1557 20G<129 533.17 1133 1482>
VStem: 129 348<0 1098> 1133 349<483 1577>
LayerCount: 2
Fore
SplineSet
1482 0 m 1
 1079 0 l 1
 477 1098 l 1
 477 0 l 1
 129 0 l 1
 129 1577 l 1
 522 1577 l 1
 1133 483 l 1
 1133 1577 l 1
 1482 1577 l 1
 1482 0 l 1
EndSplineSet
EndChar

StartChar: O
Encoding: 79 79 40
Width: 1568
GlyphClass: 2
Flags: W
HStem: -28 266<625.155 942.845> 1339 266<625.155 942.845>
VStem: 76 367.125<468.908 1108.95> 1124.88 367.12<468.908 1108.95>
LayerCount: 2
Back
SplineSet
1036 0 m 5
 1036 725 l 5
 446 725 l 5
 446 0 l 5
 75 0 l 5
 75 1577 l 5
 446 1577 l 5
 446 910 l 5
 1036 910 l 5
 1036 1577 l 5
 1404 1577 l 5
 1404 0 l 5
 1036 0 l 5
EndSplineSet
Fore
SplineSet
784 1605 m 0
 1273 1605 1492 1290 1492 789 c 0
 1492 288 1273 -28 784 -28 c 0
 295 -28 76 288 76 789 c 0
 76 1290 295 1605 784 1605 c 0
784 1339 m 0
 514.938 1339 442.498 1095.33 443.125 789 c 0
 442.498 482.668 514.938 238 784 238 c 0
 1053.06 238 1125.5 482.668 1124.88 789 c 0
 1125.5 1095.33 1053.06 1339 784 1339 c 0
EndSplineSet
EndChar

StartChar: P
Encoding: 80 80 41
Width: 1342
GlyphClass: 2
Flags: W
HStem: 0 21G<127 475> 584 220<475 812.064> 1374 203<475 810.897>
VStem: 127 348<0 584 804 1374> 955 348<921.253 1244.78>
LayerCount: 2
Fore
SplineSet
551 804 m 1
 782.651 802.841 948.913 848.993 955 1067.5 c 0
 961.642 1305.93 815.504 1373.65 581 1374 c 2
 475 1374 l 1
 475 804 l 1
 551 804 l 1
1303 1072 m 0
 1303 671.003 993.99 588.362 533 584 c 1
 475 584 l 1
 475 0 l 1
 127 0 l 1
 127 1577 l 1
 561 1577 l 1
 1001.59 1573.95 1303 1491.02 1303 1072 c 0
EndSplineSet
EndChar

StartChar: Q
Encoding: 81 81 42
Width: 1568
GlyphClass: 2
Flags: W
HStem: -420 21G<1063.41 1104.71> 1339 266<625.199 942.801>
VStem: 76 367.125<462.718 1114.07> 1124.88 367.12<458.885 1114.07>
LayerCount: 2
Fore
SplineSet
784 1339 m 0
 514.938 1339 443.125 1095.33 443.125 789 c 0
 443.125 482.668 514.938 238 784 238 c 0
 1053.06 238 1124.88 482.668 1124.88 789 c 0
 1124.88 1095.33 1053.06 1339 784 1339 c 0
784 1605 m 0
 1273 1605 1492 1290 1492 789 c 0
 1492 357.443 1329.5 63.1547 971.912 -10.1356 c 1
 1260 -234 l 1
 1086 -420 l 1
 630.185 -16.3567 l 1
 248.812 44.8954 76 343.956 76 789 c 0
 76 1290 295 1605 784 1605 c 0
EndSplineSet
EndChar

StartChar: R
Encoding: 82 82 43
Width: 1453
GlyphClass: 2
Flags: W
HStem: 0 21G<110 477 946 1311> 696 223<477 837.315> 1374 203<477 873.501>
VStem: 110 367<0 696 919 1374> 946 365<0 591.42> 966 353<1017.63 1285.65>
LayerCount: 2
Back
SplineSet
1651.88 1041 m 4
 2140.88 1041 2359.88 726 2359.88 225 c 4
 2359.88 -276 2140.88 -592 1651.88 -592 c 4
 1162.88 -592 943.875 -276 943.875 225 c 4
 943.875 726 1162.88 1041 1651.88 1041 c 4
1651.88 775 m 4
 1382.81 775 1310.37 531.332 1311 225 c 4
 1310.37 -81.332 1382.81 -326 1651.88 -326 c 4
 1920.94 -326 1993.38 -81.332 1992.75 225 c 4
 1993.38 531.332 1920.94 775 1651.88 775 c 4
EndSplineSet
Fore
SplineSet
852 806 m 1xf4
 1123.49 779.111 1311 688.738 1311 402 c 2
 1311 0 l 1
 946 0 l 1
 946 427 l 2xf8
 946 645.891 820.678 696.256 593 696 c 2
 477 696 l 1
 477 0 l 1
 110 0 l 1
 110 1577 l 1
 525 1577 l 2
 1152 1577 1319 1459 1319 1192.67 c 0
 1319 916.199 1124.91 820.33 852 806 c 1xf4
533 919 m 2
 819 919 964.927 959.013 966 1150.5 c 0xf4
 967 1329 855 1374 575 1374 c 2
 477 1374 l 1
 477 919 l 1
 533 919 l 2
EndSplineSet
EndChar

StartChar: S
Encoding: 83 83 44
Width: 1347
GlyphClass: 2
Flags: W
HStem: -37 277<410.789 819.888> 1320.34 278.73<457.094 936.24>
VStem: 79.89 332.4<1088.09 1275.58> 909.716 338.784<324.591 562.032>
LayerCount: 2
Back
SplineSet
1247 449 m 4
 1247 112.456 1006.27 -37 658.5 -37 c 4
 479.659 -37 328.9 -4.50461 206 45 c 5
 143 45 l 5
 143 365 l 5
 280.437 299.546 434.603 257.88 605.5 240 c 5
 780.958 239.991 906.74 273.659 909.704 442.894 c 4
 910.568 524.298 864 584.333 770 623 c 6
 346 799 l 5
 205.64 853.524 83.2655 983.18 80 1156.5 c 4
 73.922 1479.09 320.614 1599.01 610.584 1599.01 c 4
 798.195 1599.01 956.8 1571.47 1086.5 1527 c 5
 1155 1527 l 5
 1155 1210 l 5
 1010.85 1265.79 854.804 1306.65 686 1319 c 4
 591.943 1325.88 519.833 1305.33 467 1277.5 c 4
 400.704 1242.58 392.471 1102.37 456.017 1066.35 c 5
 893 913 l 5
 1081.52 849.523 1247 679.667 1247 449 c 4
EndSplineSet
Fore
SplineSet
1248.5 485.227 m 0
 1248.5 123.868 1017.59 -36.8956 658.5 -37 c 0
 479.659 -37 130.874 97.7441 129.899 97.9697 c 9
 195 363 l 1
 261 324 528.5 240 639 240 c 0
 768 240 909.716 292 909.716 437.113 c 0
 909.716 517.39 879.621 577.497 770 623 c 2
 346 799 l 2
 182.88 866.71 79.89 984.377 79.89 1168.11 c 0
 79.89 1477.94 317.91 1599.07 599.584 1599.07 c 0
 870.387 1598.13 1078.27 1533.77 1179 1482 c 1
 1089 1206 l 1
 1008 1263 839.82 1320.34 649.95 1320.34 c 0
 517.004 1320.27 410.731 1299.9 412.29 1171.08 c 0
 412.29 1132.91 423.666 1088.34 537 1046 c 2
 893 913 l 2
 1091.01 839.025 1248.5 697.098 1248.5 485.227 c 0
EndSplineSet
EndChar

StartChar: T
Encoding: 84 84 45
Width: 1157
GlyphClass: 2
Flags: W
HStem: 0 21G<408 756> 1374 203<-12 408 756 1168>
VStem: 408 348<0 1374>
LayerCount: 2
Fore
SplineSet
1168 1374 m 5
 756 1374 l 1
 756 0 l 1
 408 0 l 1
 408 1374 l 1
 -12 1374 l 1
 -12 1577 l 1
 1168 1577 l 1
 1168 1374 l 5
EndSplineSet
EndChar

StartChar: U
Encoding: 85 85 46
Width: 1552
GlyphClass: 2
Flags: W
HStem: -37 266<603.944 944.857> 1557 20G<118 466 1086 1434>
VStem: 118 348<390.369 1577> 1086 348<383.896 1577>
LayerCount: 2
Fore
SplineSet
466 719 m 1
 470.841 428.796 500.545 229 776 229 c 0
 1051.46 229 1086 429.358 1086 719 c 2
 1086 1577 l 1
 1434 1577 l 1
 1434 723 l 2
 1433.83 241.983 1253.41 -37 776 -37 c 0
 299.524 -37 117.381 242.06 118 723 c 2
 118 1577 l 1
 466 1577 l 1
 466 719 l 1
EndSplineSet
EndChar

StartChar: V
Encoding: 86 86 47
Width: 1331
GlyphClass: 2
Flags: W
HStem: 0 21G<465.786 864.24> 1557 20G<-18 341.344 986.721 1350>
LayerCount: 2
Fore
SplineSet
336 1577 m 1
 666 342 l 1
 992 1577 l 1
 1350 1577 l 1
 858 0 l 1
 472 0 l 1
 -18 1577 l 1
 336 1577 l 1
EndSplineSet
EndChar

StartChar: W
Encoding: 87 87 48
Width: 1996
GlyphClass: 2
Flags: W
HStem: 0 21G<354.713 769.035 1227.95 1641.29> 1557 20G<21 381.81 1615.19 1975>
LayerCount: 2
Fore
SplineSet
802 1565 m 5
 1195 1565 l 1
 1402 438 l 1
 1619 1577 l 1
 1975 1577 l 1
 1637 0 l 1
 1232 0 l 1
 998 1155 l 1
 765 0 l 1
 359 0 l 1
 21 1577 l 1
 378 1577 l 1
 595 438 l 1
 802 1565 l 5
EndSplineSet
EndChar

StartChar: X
Encoding: 88 88 49
Width: 1280
GlyphClass: 2
Flags: W
HStem: 0 21G<-49 353.899 922.416 1325> 1557 20G<-49 355.094 922.83 1325>
LayerCount: 2
Fore
SplineSet
641.969 504.183 m 1
 342 0 l 1
 -49 0 l 1
 434.267 786.94 l 1
 -49 1577 l 1
 344 1577 l 1
 638 1047 l 1
 934 1577 l 1
 1325 1577 l 1
 839.761 788.147 l 1
 1325 0 l 1
 934 0 l 1
 641.969 504.183 l 1
EndSplineSet
EndChar

StartChar: Y
Encoding: 89 89 50
Width: 1277
GlyphClass: 2
Flags: W
HStem: 0 21G<462 810> 1557 20G<-42 343.833 928.167 1320>
VStem: 462 348<0 518>
LayerCount: 2
Fore
SplineSet
636 811 m 5
 936 1577 l 1
 1320 1577 l 1
 810 518 l 1
 810 0 l 1
 462 0 l 1
 462 518 l 1
 -42 1577 l 1
 336 1577 l 1
 636 811 l 5
EndSplineSet
EndChar

StartChar: Z
Encoding: 90 90 51
Width: 1191
GlyphClass: 2
Flags: W
HStem: 0 265.079<436.489 1143> 1311 268<33 735.055>
LayerCount: 2
Fore
SplineSet
1141 1579 m 1
 1141 1348 l 1
 436.489 265.079 l 1
 1143 268 l 1
 1143 0 l 1
 33 0 l 1
 33 248 l 1
 735.055 1313.6 l 1
 33 1311 l 1
 33 1579 l 1
 1141 1579 l 1
EndSplineSet
EndChar

StartChar: bracketleft
Encoding: 91 91 52
Width: 1157
GlyphClass: 2
Flags: W
HStem: 0 262<561 979> 1270 262<561 979>
VStem: 229 750<0 262 1270 1532> 229 332<262 1270>
LayerCount: 2
Fore
SplineSet
229 1532 m 1xe0
 979 1532 l 1
 979 1270 l 1xe0
 561 1270 l 1
 561 262 l 1xd0
 979 262 l 1
 979 0 l 1
 229 0 l 1
 229 1532 l 1xe0
EndSplineSet
EndChar

StartChar: backslash
Encoding: 92 92 53
Width: 1347
GlyphClass: 2
Flags: W
LayerCount: 2
Fore
SplineSet
526 1667 m 1
 1133 -147 l 1
 817 -147 l 1
 217 1667 l 1
 526 1667 l 1
EndSplineSet
EndChar

StartChar: asciicircum
Encoding: 94 94 54
Width: 2048
GlyphClass: 2
Flags: W
HStem: 563 619
LayerCount: 2
Fore
SplineSet
897 1182 m 0
 1151 1182 l 0
 1459 563 l 0
 1165 563 l 4
 1023 1007 l 0
 881 563 l 0
 589 563 l 0
 897 1182 l 0
EndSplineSet
EndChar

StartChar: underscore
Encoding: 95 95 55
Width: 1130
GlyphClass: 2
Flags: W
HStem: -98 262<63 1059>
LayerCount: 2
Fore
SplineSet
1059 -98 m 1
 63 -98 l 1
 63 164 l 1
 1059 164 l 1
 1059 -98 l 1
EndSplineSet
EndChar

StartChar: grave
Encoding: 96 96 56
Width: 1097
GlyphClass: 2
Flags: W
HStem: 308 667
VStem: 321 475
LayerCount: 2
Fore
SplineSet
669 308 m 1
 321 850 l 1
 593 975 l 5
 796 362 l 5
 669 308 l 1
EndSplineSet
EndChar

StartChar: a
Encoding: 97 97 57
Width: 1142
GlyphClass: 2
Flags: W
HStem: -18 235<420.334 629.926> 0 21G<792.849 1050.25> 547 182<425.861 722.249> 944 242<276.892 684.432>
VStem: 49.249 328<258.965 501.974> 722.249 328.001<274.797 543.915 717 908.643>
LayerCount: 2
Back
SplineSet
218.479 857.091 m 5
 123.171 1058.79 l 5
 169.576 1095 260.576 1186 526.576 1186 c 4
 845.576 1186 1090.58 947 1090.58 582 c 4
 1090.58 201 865.576 -18 524.576 -18 c 4
 442.576 -18 247.684 4.36816 118 100.676 c 5
 205.398 309.414 l 5
 265.576 267 349.576 218 493.576 218 c 4
 708.576 218 762.576 375 762.576 574 c 4
 762.576 791 707.576 944 479.576 944 c 4
 316.576 944 217.576 861 218.479 857.091 c 5
EndSplineSet
Fore
SplineSet
377.249 385 m 0xbc
 377.249 279 431.249 217 525.249 217 c 0
 607.249 217 667.249 261 722.249 310 c 0
 722.249 539 l 0
 691.249 543 653.249 547 616.249 547 c 0
 446.249 547 377.249 506 377.249 385 c 0xbc
1050.25 674 m 0
 1050.25 0 l 0
 799.249 0 l 0x7c
 751.249 150 l 0
 709.249 64 607.249 -18 448.249 -18 c 0
 193.249 -18 49.249 117 49.249 373 c 0
 49.249 610 244 729 573.249 729 c 0
 622.249 729 679.249 725 722.249 717 c 0
 722.249 844 717.249 944 567.249 944 c 0
 332 944 198 866 198 866 c 9
 115.249 1072 l 17
 118 1072 282 1186 579.249 1186 c 0
 970.249 1186 1050.25 963 1050.25 674 c 0
EndSplineSet
EndChar

StartChar: b
Encoding: 98 98 58
Width: 1284
GlyphClass: 2
Flags: W
HStem: -16 236<543.56 767.701> 0 21G<100 355.157> 952 234<554.908 784.006>
VStem: 100 350<257.468 892.017 1060 1589.5> 856 350<329.009 872.012>
LayerCount: 2
Fore
SplineSet
1206 586 m 0x78
 1206 260 1086 -16 735 -16 c 0xb8
 556 -16 450 75 422 166 c 0
 346 0 l 0
 100 0 l 0
 100 1589.5 l 0
 450 1636.5 l 0
 450 1060 l 0
 516 1141 624 1186 768 1186 c 0
 1051 1186 1206 938 1206 586 c 0x78
856 586 m 0
 856 757 843 952 685 952 c 0
 584 952 506 911 450 856 c 0
 450 296 l 0
 479 256 543 220 654 220 c 0
 816 220 856 409 856 586 c 0
EndSplineSet
EndChar

StartChar: c
Encoding: 99 99 59
Width: 1152
GlyphClass: 2
Flags: W
HStem: -14 236<562.64 904.136> 950 236<536.363 897.205>
VStem: 78 352<365.868 834.018>
LayerCount: 2
Back
SplineSet
647 218 m 4
 798 218 867 340 867 584 c 4
 867 828 798 950 647 950 c 4
 496 950 427 828 427 584 c 4
 427 340 496 218 647 218 c 4
647 1186 m 4
 1017 1186 1216 951 1216 582 c 4
 1216 215 1018 -16 647 -16 c 4
 276 -16 78 215 78 582 c 4
 78 951 277 1186 647 1186 c 4
EndSplineSet
Fore
SplineSet
78 586 m 4
 78 978 356 1186 642 1186 c 4
 839 1186 945 1137 1043 1086 c 4
 978 861 l 4
 950 888 822 950 702 950 c 4
 498 950 430 834 430 586 c 4
 430 334 538 222 729 222 c 4
 849 222 923 275 977 311 c 4
 1042 86 l 4
 944 35 838 -14 641 -14 c 4
 328 -14 78 198 78 586 c 4
EndSplineSet
EndChar

StartChar: d
Encoding: 100 100 60
Width: 1285
GlyphClass: 2
Flags: W
HStem: -16 236<517.296 742.801> 0 21G<928.843 1184> 952 234<497.989 721.674>
VStem: 78 350<329.009 872.012> 834 350<257.468 892.017 1046 1590>
LayerCount: 2
Back
SplineSet
78 599 m 4x78
 78 246 205 -16 556 -16 c 4xb8
 700 -16 789 49 836 156 c 5
 888 0 l 5
 1188 0 l 5
 1188 1638 l 5
 837 1589.33 l 5
 837 1060 l 5
 761 1146 641 1186 500 1186 c 4
 298 1186 78 1017 78 599 c 4x78
430 581 m 4
 430 752 443 952 601 952 c 5
 702 952 781 911 837 856 c 5
 837 329 l 5
 807 278 732 220 632 220 c 4
 470 220 430 404 430 581 c 4
EndSplineSet
Fore
SplineSet
78 586 m 0xb8
 78 938 242 1186 525 1186 c 0
 687 1186 783 1116 834 1046 c 0
 834 1590 l 0
 1184 1638 l 0
 1184 0 l 0
 938 0 l 0x78
 862 166 l 0
 834 75 730 -16 551 -16 c 0
 200 -16 78 260 78 586 c 0xb8
428 586 m 0
 428 409 468 220 630 220 c 0xb8
 741 220 805 256 834 296 c 0
 834 856 l 0
 778 911 700 952 599 952 c 0
 441 952 428 757 428 586 c 0
EndSplineSet
EndChar

StartChar: e
Encoding: 101 101 61
Width: 1207
GlyphClass: 2
Flags: W
HStem: -16 238<559.738 925.392> 502 174<437.967 847.967> 950 236<530.869 764.523>
VStem: 77.793 360.174<351.604 502 676 823.575> 847.967 283.993<676 864.012>
LayerCount: 2
Back
SplineSet
78 586 m 4
 78 978 356 1186 642 1186 c 4
 839 1186 945 1137 1043 1086 c 4
 978 861 l 4
 950 888 822 950 702 950 c 4
 498 950 430 834 430 586 c 4
 430 334 538 222 729 222 c 4
 849 222 923 275 977 311 c 4
 1042 86 l 4
 944 35 838 -14 641 -14 c 4
 328 -14 78 198 78 586 c 4
EndSplineSet
Fore
SplineSet
847.967 676 m 4
 848.967 831 786.967 950 646.967 950 c 4
 504.967 950 436.967 814 436.967 676 c 4
 847.967 676 l 4
1007.79 314 m 4
 1073.79 80 l 4
 961.797 23 827.967 -15 655.967 -16 c 4
 301.967 -18 70.793 221 77.793 586 c 4
 85.793 960 327.793 1186 652.967 1186 c 4
 955.969 1186 1134.96 971 1131.96 666 c 4
 1131.96 502 l 4
 437.967 502 l 4
 441.793 346 540.793 221 711.793 222 c 4
 832.808 222.708 933.793 260 1007.79 314 c 4
EndSplineSet
EndChar

StartChar: f
Encoding: 102 102 62
Width: 820
GlyphClass: 2
Flags: W
HStem: 0 21G<150 500> 998 162<0 150 501 781> 1345 259<531.282 785.393>
VStem: 150 350<0 998 1160 1310.45>
LayerCount: 2
Back
SplineSet
172 1160 m 5
 170.373 1446.68 273.041 1611.94 558 1604 c 4
 643.289 1601.61 719.622 1591.77 787 1574.5 c 5
 787 1320 l 5
 747 1336.67 738 1345 688 1345 c 4
 602.83 1345 565.155 1345.69 530 1307 c 5
 506.913 1274.68 497.246 1225.68 501 1160 c 5
 813 1160 l 5
 813 998 l 5
 500 998 l 5
 500 0 l 5
 172 0 l 5
 172 998 l 5
 0 998 l 5
 0 1160 l 5
 172 1160 l 5
EndSplineSet
Fore
SplineSet
638 1345 m 0
 546.088 1345 501 1308 501 1160 c 0
 781 1160 l 0
 781 998 l 0
 500 998 l 0
 500 0 l 0
 150 0 l 0
 150 998 l 0
 0 998 l 0
 0 1160 l 0
 150 1160 l 0
 149 1426 272 1604 558 1604 c 0
 643.323 1604 719.622 1591.77 787 1574.5 c 0
 787 1320 l 0
 787 1320 720 1345 638 1345 c 0
EndSplineSet
EndChar

StartChar: g
Encoding: 103 103 63
Width: 1268
GlyphClass: 2
Flags: WO
HStem: -562 248<379.588 868.155> 2 232<452.18 858.327> 965 221<457.625 751.326 1044.85 1280>
VStem: 99.0029 238.953<-270.999 -88.9643> 102.003 312.913<702.779 922.168> 797.003 298.997<705.441 920.044> 916.003 299.007<-268.136 -52.7711>
LayerCount: 2
Back
SplineSet
335 830 m 4xea80
 335 669 447 598 612 598 c 4
 793 598 895 656 895 830 c 4
 895 980 795 1065 615 1065 c 4
 446 1065 335 991 335 830 c 4xea80
283 -142 m 4xe440
 283 -294 397 -352 593 -352 c 4
 804 -352 976 -333 976 -143 c 4
 976 3 909.048 79.4521 697 78 c 6
 551 77 l 5
 551 77 283 2 283 -142 c 4xe440
703 491 m 13
 543 410 l 6
 504.269 390.393 384 326 384 293 c 4xf180
 384 246 423.841 218.308 459 215 c 6
 713 214 l 6
 981.004 212.945 1154 121 1154 -138 c 4
 1154 -419 901 -497 582 -497 c 4
 318 -497 125 -400 125 -157 c 4xf440
 125 20 390 101 391 102 c 5
 282.243 123.751 233.448 199.894 233.448 280.195 c 4xf1
 233.448 384.602 326.359 432.172 418 476 c 6
 487 509 l 5
 340 506 161 632 161 839.5 c 4
 161 1047 352.004 1188.55 619 1190 c 6xea
 622.266 1190.01 l 6
 804.719 1190.01 911 1107 911 1107 c 5
 990 1146 l 5
 1033 1166 1119 1186 1187 1186 c 6
 1217 1186 l 5
 1217 1032 l 5
 978 1032 l 5
 1008 1001 l 5
 1047 944 1060 893 1060 835 c 4xf280
 1060 515 705.108 492.701 703 491 c 13
EndSplineSet
Fore
SplineSet
414.916 808 m 0xec
 414.916 725.406 459 666 598.003 666 c 0
 720 666 797.003 704.239 797.003 808 c 0
 797.003 913.333 726 965 608.137 965 c 0
 495 965 414.916 931.09 414.916 808 c 0xec
297 45 m 5
 297 45 142 75 142 204 c 4
 142 369 206 395 422 494 c 1
 260 503 102.003 670.046 102.003 798 c 0
 102.003 1053.52 318.596 1186 579.503 1186 c 0
 716.503 1186 833.336 1166.67 894.003 1128 c 1
 978.67 1165.33 1067.33 1184 1160 1184 c 2
 1280 1184 l 1
 1280 965 l 1
 1043 965 l 2
 1044.61 965 1096 881.375 1096 804 c 0xec
 1096 573 893 488 728 470 c 1
 513 336 l 6
 474.94 316.827 447.285 307.982 449 273 c 28
 450.514 242.126 474.93 234 518 234 c 6
 683.003 234 l 2
 1103.89 234 1214.44 42.3877 1215.01 -169.052 c 0
 1215.01 -417.7 1032.34 -562 639.003 -562 c 0
 120.34 -562 99.0029 -370.095 99.0029 -228 c 4xf2
 99.0029 -42.9971 297 42 297 45 c 5
524 2 m 5
 523 2 337.956 -71 337.956 -177.653 c 4
 337.956 -262 372.34 -314 651.003 -314 c 0
 879.34 -314 916.003 -248 916.003 -169 c 0xf2
 916.003 -88.3525 883.832 4.48145 669.003 3 c 2
 524 2 l 5
EndSplineSet
EndChar

StartChar: h
Encoding: 104 104 64
Width: 1271
GlyphClass: 2
Flags: W
HStem: 0 21G<100 450 828 1180> 942 234<561.74 894.319>
VStem: 100 350<0 900.356 1037 1589> 828 352<0 877.059>
LayerCount: 2
Back
SplineSet
797 727.005 m 6xd8
 797 882.005 756 942.005 633.5 942.005 c 4xd8
 555.244 942.005 490.71 911.027 451 865.505 c 5
 451 0.00488281 l 5
 99 0.00488281 l 5
 99 1160 l 5
 365 1160 l 5xb8
 432 1021 l 5
 485 1101 597.05 1176 736 1176 c 4
 1030.33 1176 1149.09 1013.84 1149 701 c 6
 1149 0 l 5
 797 0.00488281 l 5
 797 727.005 l 6xd8
EndSplineSet
Fore
SplineSet
450 1649 m 0
 450 1037 l 0
 451 1039 530 1176 763 1176 c 0
 1020 1176 1180 1022 1180 703 c 2
 1180 0 l 25
 828 0 l 25
 828 727 l 2
 828 874 754 942 649 942 c 0
 541 942 500 909 450 864 c 1
 450 0 l 29
 100 0 l 29
 100 1589 l 0
 450 1649 l 0
EndSplineSet
EndChar

StartChar: k
Encoding: 107 107 67
Width: 1289
GlyphClass: 2
Flags: W
HStem: 0 21G<105 456 857.873 1287> 1149 20G<837.524 1277>
VStem: 105 351<0 419 736 1589>
LayerCount: 2
Back
SplineSet
456 1637 m 4
 105 1589 l 4
 105 0 l 4
 456 0 l 4
 456 1637 l 4
EndSplineSet
Fore
SplineSet
456 419 m 1
 456 0 l 1
 105 0 l 1
 105 1589 l 5
 456 1638 l 1
 456 736 l 1
 856 1169 l 1
 1277 1169 l 1
 765 649 l 1
 1287 0 l 1
 872 -1 l 1
 528 486 l 1
 456 419 l 1
EndSplineSet
EndChar

StartChar: l
Encoding: 108 108 68
Width: 641
GlyphClass: 2
Flags: W
HStem: 0 21G<145 496>
VStem: 145 351<0 1589>
LayerCount: 2
Fore
SplineSet
496 1637 m 4
 496 0 l 4
 145 0 l 4
 145 1589 l 4
 496 1637 l 4
EndSplineSet
EndChar

StartChar: m
Encoding: 109 109 69
Width: 1863
GlyphClass: 2
Flags: W
HStem: 0 21G<100 451 764 1115 1425 1771> 939.996 236.004<560.673 738.939 1195.99 1531> 1140 20G<100 357.282>
VStem: 100 351<0 878.14> 764 351<0 882.055> 1425 346<0 909.965>
LayerCount: 2
Back
SplineSet
1353 1186 m 4xce
 1595 1186 1738 1021 1738 745 c 6
 1738 0 l 5
 1410 0 l 5
 1410 772 l 6
 1410 885 1394 950 1326 950 c 4
 1246 950 1162 912 1090 842 c 5
 1090 0 l 5
 761 0 l 5
 761 772 l 6
 761 885 747 950 679 950 c 4
 599 950 515 898 458 841 c 5
 458 0 l 5
 130 0 l 5xd6
 130 1160 l 5
 408 1160 l 5xae
 456 1022 l 5
 534 1112 621 1186 759 1186 c 4
 906 1186 987 1140 1053 1005 c 5
 1129 1115 1234 1186 1353 1186 c 4xce
EndSplineSet
Fore
SplineSet
1410 1176 m 0xdc
 1652 1176 1771 1011 1771 735 c 0
 1771 0 l 0
 1425 0 l 0
 1425 762 l 2
 1425 900 1369 940 1301 940 c 0
 1237 940 1187 912 1115 842 c 0
 1115 0 l 0
 764 0 l 0
 764 772 l 2
 764 909 719 939.996 651 939.996 c 0xdc
 560 939.996 486 873 451 841 c 0
 451 0 l 0
 100 0 l 0
 100 1160 l 0
 347.996 1160 l 0xbc
 426 991.997 l 0
 461.333 1088.67 592.663 1176 730.663 1176 c 0
 885.333 1176 989 1137 1055 1002 c 0
 1131 1112 1227 1176 1410 1176 c 0xdc
EndSplineSet
EndChar

StartChar: n
Encoding: 110 110 70
Width: 1242
GlyphClass: 2
Flags: W
HStem: 0.00488281 21G<100 452 798 1150> 942.005 233.995<558.395 753.941> 1140 20G<100 375.64>
VStem: 100 352<0.00488281 903.419> 798 352<0.00488281 895.987>
LayerCount: 2
Back
SplineSet
822 727.005 m 6xd8
 822 882.005 788 942.005 665.5 942.005 c 4xd8
 587.244 942.005 531.71 911.027 492 865.505 c 5
 492 0.00488281 l 5
 140 0.00488281 l 5
 140 1160 l 5
 416 1160 l 5xb8
 483 1021 l 5
 519 1109 629.05 1176 768 1176 c 4
 1062.33 1176 1174.09 1013.84 1174 701 c 6
 1174 0 l 5
 822 0.00488281 l 5
 822 727.005 l 6xd8
EndSplineSet
Fore
SplineSet
798 727.005 m 6xd8
 798 882.005 757 942.005 634.5 942.005 c 4xd8
 556.244 942.005 491.71 911.027 452 865.505 c 5
 452 0.00488281 l 5
 100 0.00488281 l 5
 100 1160 l 5
 366 1160 l 5xb8
 433 1021 l 5
 486 1101 598.05 1176 737 1176 c 4
 1031.33 1176 1150.09 1013.84 1150 701 c 6
 1150 0 l 5
 798 0.00488281 l 5
 798 727.005 l 6xd8
EndSplineSet
EndChar

StartChar: o
Encoding: 111 111 71
Width: 1294
GlyphClass: 2
Flags: W
HStem: -16 234<525.664 768.336> 950 236<525.794 768.206>
VStem: 78 349<330.597 836.293> 867 349<330.597 836.293>
LayerCount: 2
Back
SplineSet
1209 599 m 4x78
 1209 246 1082 -16 731 -16 c 4xb8
 587 -16 498 49 451 156 c 5
 399 0 l 5
 99 0 l 5
 99 1589.5 l 5
 450 1636.5 l 5
 450 1060 l 5
 526 1146 646 1186 787 1186 c 4
 989 1186 1209 1017 1209 599 c 4x78
857 581 m 4
 857 752 844 952 686 952 c 5
 585 952 506 911 450 856 c 5
 450 329 l 5
 480 278 555 220 655 220 c 4
 817 220 857 404 857 581 c 4
EndSplineSet
Fore
SplineSet
647 218 m 0
 798 218 867 340 867 584 c 0
 867 828 798 950 647 950 c 0
 496 950 427 828 427 584 c 0
 427 340 496 218 647 218 c 0
647 1186 m 0
 1017 1186 1216 951 1216 582 c 0
 1216 215 1018 -16 647 -16 c 0
 276 -16 78 215 78 582 c 4
 78 951 277 1186 647 1186 c 0
EndSplineSet
EndChar

StartChar: p
Encoding: 112 112 72
Width: 1289
GlyphClass: 2
Flags: W
HStem: -406 21G<100 451> -16 234<544.668 788.831> 942 236<553.396 768.063> 1140 20G<100 376.429>
VStem: 100 351<-406 110 277.983 902.473> 858 353<297.551 838.406>
LayerCount: 2
Back
SplineSet
798 727.005 m 6xd8
 798 882.005 757 942.005 634.5 942.005 c 4xd8
 556.244 942.005 491.71 911.027 452 865.505 c 5
 452 0.00488281 l 5
 100 0.00488281 l 5
 100 1160 l 5
 366 1160 l 5xb8
 433 1021 l 5
 486 1101 598.05 1176 737 1176 c 4
 1031.33 1176 1150.09 1013.84 1150 701 c 6
 1150 0 l 5
 798 0.00488281 l 5
 798 727.005 l 6xd8
EndSplineSet
Fore
SplineSet
724 -16 m 0xec
 606.737 -16 510 29 451 110 c 0
 451 -406 l 0
 100 -406 l 0
 100 1160 l 0
 367 1160 l 0xdc
 433 1020 l 0
 495 1127 619 1178 736 1178 c 0
 1061 1178 1211 922 1211 565 c 0
 1211 182 1007 -16 724 -16 c 0xec
858 589 m 0
 858 766 818 942 656 942 c 0xec
 531 942 487 902 451 865 c 0
 451 314 l 0
 507 259 586 218 687 218 c 0
 845 218 858 418 858 589 c 0
EndSplineSet
EndChar

StartChar: q
Encoding: 113 113 73
Width: 1274
GlyphClass: 2
Flags: W
HStem: -406 21G<826 1154> -16 234<488.855 735.021> 950 236<508.004 725.139> 1140 20G<870.288 1154>
VStem: 90 329<301.022 841.271> 826 328<-406 110 277.983 891.168>
LayerCount: 2
Back
SplineSet
731 -16 m 4xe4
 610.333 -16 519.333 26 458 110 c 5
 458 -406 l 5
 130 -406 l 5xe8
 130 1160 l 5
 407 1160 l 5xd4
 407 1014 l 5
 430.333 1066.67 471.333 1108.5 530 1139.5 c 132
 588.667 1170.5 654.333 1186 727 1186 c 4
 1030.33 1186 1186 985.333 1194 584 c 4
 1197.7 398.428 1147.87 242.428 1044.5 116 c 4
 972.549 28 868.049 -16 731 -16 c 4xe4
663 950 m 4
 639.667 950 617.167 945.833 595.5 937.5 c 132
 573.833 929.167 557.167 920.833 545.5 912.5 c 132
 533.833 904.167 518.167 891.5 498.5 874.5 c 132
 478.833 857.5 465.333 846.333 458 841 c 5
 458 314 l 5
 514.488 259.37 593.155 227.37 694 218 c 5
 731.494 218.656 761.878 231.217 785.154 255.683 c 132
 808.43 280.149 825.545 311.921 836.5 351 c 4
 849.767 398.326 858.651 452.81 863.152 514.45 c 132
 867.653 576.09 866.16 638.117 858.673 700.53 c 132
 851.185 762.943 837.461 813.1 817.5 851 c 4
 782.739 917 731.239 950 663 950 c 4
EndSplineSet
Fore
SplineSet
557 1186 m 0xec
 701 1186 781 1121 828 1014 c 0
 877 1160 l 0
 1154 1160 l 0xdc
 1154 -406 l 0
 826 -406 l 0
 826 110 l 0
 767 29 676 -16 553 -16 c 0
 412 -16 307 34 240 116 c 0
 158 216 90 358 90 565 c 0
 90 922 206 1186 557 1186 c 0xec
419 589 m 0
 419 418 432 218 590 218 c 0
 691 218 770 259 826 314 c 0
 826 841 l 0
 796 892 721 950 621 950 c 0xec
 459 950 419 766 419 589 c 0
EndSplineSet
EndChar

StartChar: r
Encoding: 114 114 74
Width: 811
GlyphClass: 2
Flags: W
HStem: 0 21G<106 458> 926 257<559.959 798.963> 1140 20G<106 413.755>
VStem: 106 352<0 870.6>
LayerCount: 2
Back
SplineSet
804 727.005 m 6xd8
 804 882.005 763 942.005 640.5 942.005 c 4xd8
 562.244 942.005 497.71 911.027 458 865.505 c 5
 458 0.00488281 l 5
 106 0.00488281 l 5
 106 1160 l 5
 372 1160 l 5xb8
 439 1021 l 5
 492 1101 604.05 1176 743 1176 c 4
 1037.33 1176 1156.09 1013.84 1156 701 c 6
 1156 0 l 5
 804 0.00488281 l 5
 804 727.005 l 6xd8
EndSplineSet
Fore
SplineSet
448 1021 m 0xb0
 529 1170 648 1183 799 1183 c 0
 799 908 l 0
 799 908 747.906 926 685 926 c 0xd0
 592 926 509.125 879.682 458 841 c 0
 458 0 l 0
 106 0 l 4
 106 1160 l 4
 408 1160 l 0
 448 1021 l 0xb0
EndSplineSet
EndChar

StartChar: s
Encoding: 115 115 75
Width: 1053
GlyphClass: 2
Flags: W
HStem: -18 241<281.234 665.678> 945 241<412.012 833.727>
VStem: 86.9004 316<800.883 925.53> 680.9 325<242.748 409.48>
LayerCount: 2
Back
SplineSet
1051 586 m 0
 1051 978 773 1186 487 1186 c 0
 290 1186 184 1137 86 1086 c 0
 151 861 l 0
 179 888 307 950 427 950 c 0
 631 950 699 834 699 586 c 0
 699 334 591 222 400 222 c 0
 280 222 206 275 152 311 c 0
 87 86 l 0
 185 35 291 -14 488 -14 c 0
 801 -14 1051 198 1051 586 c 0
EndSplineSet
Fore
SplineSet
588 945 m 4
 439 945 402.9 914 402.9 872 c 0
 402.9 818 430.072 800.652 492.9 778 c 2
 639.9 725 l 2
 846.076 650.664 1005.9 580 1005.9 355 c 0
 1005.9 62 743 -18 534 -18 c 0
 364 -18 214 12 90 86 c 1
 156 314 l 1
 156 314 354 223 514 223 c 0
 652 223 680.9 258 680.9 330 c 0
 680.9 396 645.383 416.218 570.9 442 c 2
 414.9 496 l 2
 183.428 576.125 86.9004 680 86.9004 850 c 0
 86.9004 1055 257.9 1186 554.9 1186 c 0
 763.9 1186 983.9 1094 983.9 1094 c 1
 918 872 l 1
 918 872 730 945 588 945 c 4
EndSplineSet
EndChar

StartChar: t
Encoding: 116 116 76
Width: 996
GlyphClass: 2
Flags: W
HStem: -15.7598 257.76<579.281 813.771> 1009 151<53 193 542 840> 1557 20G<463.429 542>
VStem: 193 349<282.743 1009 1160 1411.26> 212 330<1160 1493>
LayerCount: 2
Back
SplineSet
889 727.005 m 6xd8
 889 882.005 848 942.005 725.5 942.005 c 4xd8
 647.244 942.005 582.71 911.027 543 865.505 c 5
 543 0.00488281 l 5
 191 0.00488281 l 5
 191 1160 l 5
 457 1160 l 5xb8
 524 1021 l 5
 577 1101 689.05 1176 828 1176 c 4
 1122.33 1176 1241.09 1013.84 1241 701 c 6
 1241 0 l 5
 889 0.00488281 l 5
 889 727.005 l 6xd8
EndSplineSet
Fore
SplineSet
590 -15.7598 m 0xf0
 359 -15.7598 193 111 193 453 c 2
 193 1009 l 1xf0
 53 1009 l 1
 53 1160 l 1
 202 1160 l 1
 212 1493 l 1
 542 1577 l 1xe8
 542 1160 l 1
 840 1160 l 1
 840 1009 l 1
 542 1009 l 1
 542 428 l 6
 542 314.907 581 243 673 242 c 4
 749.792 241.165 843 300 843 303 c 1
 938 83 l 1
 938 83 788 -15.7598 590 -15.7598 c 0xf0
EndSplineSet
EndChar

StartChar: u
Encoding: 117 117 77
Width: 1226
GlyphClass: 2
Flags: W
HStem: 0 21G<372.837 607 868.778 1126> 1140 20G<92 444 774 1126>
VStem: 92 352<264.012 1160> 774 352<257.689 1160>
LayerCount: 2
Back
SplineSet
798 727.005 m 6xd8
 798 882.005 764 942.005 641.5 942.005 c 4xd8
 563.244 942.005 507.71 911.027 468 865.505 c 5
 468 0.00488281 l 5
 116 0.00488281 l 5
 116 1160 l 5
 392 1160 l 5xb8
 459 1021 l 5
 495 1109 605.05 1176 744 1176 c 4
 1038.33 1176 1150.09 1013.84 1150 701 c 6
 1150 0 l 5
 798 0.00488281 l 5
 798 727.005 l 6xd8
EndSplineSet
Fore
SplineSet
444 433 m 0
 442.913 303.203 481.16 223.815 588.5 218 c 0
 672.457 223.478 734.29 248.978 774 294.5 c 0
 774 1160 l 0
 1126 1160 l 0
 1126 0 l 0
 878 0 l 0
 801 167 l 0
 778 88 694 -16 520 -16 c 0
 225.674 -16 91.9102 146.156 92 459 c 0
 92 1160 l 0
 444 1160 l 0
 444 433 l 0
EndSplineSet
EndChar

StartChar: v
Encoding: 118 118 78
Width: 1180
GlyphClass: 2
Flags: W
HStem: 0 21G<370.603 807.431> 1140 20G<6 379.006 797.041 1174>
LayerCount: 2
Fore
SplineSet
801 0 m 1
 377 0 l 1
 6 1160 l 5
 374 1160 l 1
 589 301 l 1
 802 1160 l 1
 1174 1160 l 1
 801 0 l 1
EndSplineSet
EndChar

StartChar: w
Encoding: 119 119 79
Width: 1539
GlyphClass: 2
Flags: W
HStem: 0 21G<265.017 623.479 910.399 1273> 1140 20G<-19 310.016 611.826 927.159 1234.79 1558>
LayerCount: 2
Fore
SplineSet
915 0 m 1
 765 652 l 5
 619 0 l 1
 270 0 l 1
 -19 1160 l 1
 306 1160 l 1
 458 403 l 1
 616 1160 l 1
 923 1160 l 1
 1080 405 l 1
 1239 1160 l 1
 1558 1160 l 1
 1268 0 l 1
 915 0 l 1
EndSplineSet
EndChar

StartChar: x
Encoding: 120 120 80
Width: 1221
GlyphClass: 2
Flags: W
HStem: 0 21G<26 424.845 802.917 1197> 1140 20G<18 425.808 802.445 1203>
LayerCount: 2
Fore
SplineSet
612 336 m 1
 413 0 l 1
 26 0 l 1
 422 584 l 1
 18 1160 l 1
 413 1160 l 1
 616 843 l 1
 815 1160 l 1
 1203 1160 l 5
 808 584 l 5
 1197 0 l 5
 815 0 l 1
 612 336 l 1
EndSplineSet
EndChar

StartChar: y
Encoding: 121 121 81
Width: 1166
GlyphClass: 2
Flags: W
HStem: -468 21G<207.264 363.829> 1140 20G<-13.2012 360.736 810.642 1171.8>
LayerCount: 2
Fore
SplineSet
461.799 43 m 0
 -13.2012 1160 l 1
 353.799 1160 l 1
 618.799 396 l 1
 815.799 1160 l 5
 1171.8 1160 l 1
 776.799 -32 l 2
 680.429 -322.817 511.659 -465.065 216 -468 c 1
 102 -207 l 1
 320.384 -193.178 416.385 -132.777 461.799 43 c 0
EndSplineSet
EndChar

StartChar: z
Encoding: 122 122 82
Width: 995
GlyphClass: 2
Flags: W
HStem: 0 264<426 918> 905 264<55 531.13>
LayerCount: 2
Fore
SplineSet
531.13 904.178 m 1
 55 905 l 1
 55 1169 l 1
 907 1169 l 5
 907 938 l 1
 426 264 l 1
 918 264 l 1
 918 0 l 1
 43 0 l 1
 43 233 l 1
 531.13 904.178 l 1
EndSplineSet
EndChar

StartChar: Scaron
Encoding: 170 352 90
Width: 1347
GlyphClass: 2
HStem: -37 277<410.789 819.888> 1320.34 278.73<457.094 936.24>
VStem: 79.89 332.4<1088.09 1275.58> 909.716 338.784<324.591 562.032>
LayerCount: 2
Fore
SplineSet
483.584 1721.01 m 0
 175.584 2340.01 l 0
 467.584 2340.01 l 0
 609.584 1896.01 l 0
 751.584 2340.01 l 4
 1045.58 2340.01 l 0
 737.584 1721.01 l 0
 483.584 1721.01 l 0
EndSplineSet
Refer: 44 83 N 1 0 0 1 0 0 3
EndChar

StartChar: Zcaron
Encoding: 172 381 91
Width: 1191
GlyphClass: 2
HStem: 0 265.079<436.489 1143> 1311 268<33 735.055>
LayerCount: 2
Fore
SplineSet
460 1719 m 0
 152 2338 l 0
 444 2338 l 0
 586 1894 l 0
 728 2338 l 4
 1022 2338 l 0
 714 1719 l 0
 460 1719 l 0
EndSplineSet
Refer: 51 90 N 1 0 0 1 0 0 3
EndChar

StartChar: scaron
Encoding: 186 353 99
Width: 1053
GlyphClass: 2
Flags: W
HStem: -18 241<281.234 665.678> 945 241<412.012 833.727>
VStem: 86.9004 316<800.883 925.53> 680.9 325<242.748 409.48>
LayerCount: 2
Fore
SplineSet
427.9 1308 m 0
 119.9 1927 l 0
 411.9 1927 l 0
 553.9 1483 l 0
 695.9 1927 l 4
 989.9 1927 l 0
 681.9 1308 l 0
 427.9 1308 l 0
EndSplineSet
Refer: 75 115 N 1 0 0 1 0 0 3
EndChar

StartChar: zcaron
Encoding: 188 382 100
Width: 995
GlyphClass: 2
HStem: 0 264<426 918> 905 264<55 531.13>
LayerCount: 2
Fore
SplineSet
354 1308 m 0
 46 1927 l 0
 338 1927 l 0
 480 1483 l 0
 622 1927 l 4
 916 1927 l 0
 608 1308 l 0
 354 1308 l 0
EndSplineSet
Refer: 82 122 N 1 0 0 1 0 0 3
EndChar

StartChar: afii00208
Encoding: 189 8213 101
Width: 4096
GlyphClass: 2
Flags: W
HStem: 512 204<204 3892>
LayerCount: 2
Fore
SplineSet
204 512 m 1
 204 716 l 1
 3892 716 l 1
 3892 512 l 1
 204 512 l 1
EndSplineSet
EndChar

StartChar: Ccaron
Encoding: 200 268 108
Width: 1302
GlyphClass: 2
Flags: W
HStem: -29 268<629.765 1021.66> 1336 266<628.969 1030.85>
VStem: 76 367<477.228 1117.9>
LayerCount: 2
Fore
SplineSet
637 1721 m 0
 329 2340 l 0
 621 2340 l 0
 763 1896 l 0
 905 2340 l 4
 1199 2340 l 0
 891 1721 l 0
 637 1721 l 0
EndSplineSet
Refer: 28 67 N 1 0 0 1 0 0 3
EndChar

StartChar: Oslash
Encoding: 216 216 122
Width: 1568
GlyphClass: 2
Flags: W
HStem: -28 266<625.155 942.845> 1339 266<625.155 942.845>
VStem: 76 367.125<468.908 1108.95> 1124.88 367.12<468.908 1108.95>
LayerCount: 2
Fore
SplineSet
376 -123 m 1
 1132 1739 l 1
 1263 1694 l 1
 512 -168 l 1
 376 -123 l 1
EndSplineSet
Refer: 40 79 N 1 0 0 1 0 0 2
EndChar

StartChar: germandbls
Encoding: 223 223 128
Width: 1594
GlyphClass: 2
Flags: W
HStem: -209 293<611 955.658> 0 21G<98 469> 689 218<617 914.907> 1334 245<562.071 928.888>
VStem: 98 371<0 1230.95> 1010 322.66<992.17 1258.76> 1168 369<244.641 536.833>
LayerCount: 2
Back
SplineSet
1159 383 m 4
 1159 715.8 1104 953 680 953 c 6
 588 953 l 5
 588 -158 l 5
 680 -158 l 6
 1095 -158 1159 51.2305 1159 383 c 4
1527 381 m 4
 1527 -111.494 1283 -401 719 -401 c 6
 217 -401 l 5
 217 1176 l 5
 719 1176 l 6
 1298 1176 1527 871.65 1527 381 c 4
EndSplineSet
Fore
SplineSet
1332.66 1156.53 m 0x7c
 1332.66 997 1243 849 998 819 c 1
 1432 783 1537 581 1537 355 c 2
 1537 352 l 2
 1537 -74 1058 -209 611 -209 c 9
 610 84 l 5
 1071 84 1168 223 1168 410 c 0xba
 1168 566 1028 689 664 689 c 2
 617 689 l 1
 617 907 l 1
 704 907 l 2
 886 907 1010 960 1010 1135 c 0
 1010 1246 949 1334 723 1334 c 0
 520 1334 469 1229 469 980 c 2
 469 0 l 1
 98 0 l 1
 98 980 l 2
 98 1353 269 1579 723 1579 c 0
 1220.54 1579 1332.66 1318 1332.66 1156.53 c 0x7c
EndSplineSet
EndChar

StartChar: ccaron
Encoding: 232 269 135
Width: 1152
GlyphClass: 2
Flags: W
HStem: -14 236<562.64 904.136> 950 236<536.363 897.205>
VStem: 78 352<365.868 834.018>
LayerCount: 2
Fore
SplineSet
516 1308 m 0
 208 1927 l 0
 500 1927 l 0
 642 1483 l 0
 784 1927 l 4
 1078 1927 l 0
 770 1308 l 0
 516 1308 l 0
EndSplineSet
Refer: 59 99 N 1 0 0 1 0 0 3
EndChar

StartChar: oslash
Encoding: 248 248 149
Width: 1294
GlyphClass: 2
Flags: W
HStem: -16 234<525.664 768.336> 950 236<525.794 768.206>
VStem: 78 349<330.597 836.293> 867 349<330.597 836.293>
LayerCount: 2
Fore
SplineSet
343 -141 m 1
 848 1362 l 1
 949 1326 l 1
 449 -177 l 1
 343 -141 l 1
EndSplineSet
Refer: 71 111 N 1 0 0 1 0 0 2
EndChar

StartChar: copyright
Encoding: 264 169 163
Width: 2144
GlyphClass: 2
Flags: W
HStem: -69 220<829.902 1307.61> 281 209<934.064 1274.32> 1100 209<933.6 1293.55> 1440 221<839.708 1307.02>
VStem: 187.5 243<561.278 1028.82> 607.5 236<588.903 995.847> 1713.5 243<558.646 1034.82>
LayerCount: 2
Fore
SplineSet
1074.5 151 m 0
 1447.5 151 1713.5 443 1713.5 800 c 0
 1713.5 1056 1536.5 1440 1055.5 1440 c 0
 746.5 1440 430.5 1191 430.5 794 c 0
 430.5 436 688.5 151 1074.5 151 c 0
1060.5 1661 m 0
 1570.5 1661 1834.5 1315 1916.5 1055 c 0
 1943.5 969 1956.5 873 1956.5 767 c 0
 1956.5 555 1843.5 165 1398.5 -8 c 0
 1292.5 -49 1181.5 -69 1065.5 -69 c 0
 605.5 -69 187.5 279 187.5 794 c 0
 187.5 1317 625.5 1661 1060.5 1661 c 0
843.5 795 m 0
 843.5 562 938.5 490 1080.5 490 c 0
 1169.5 490 1247.5 520 1302.5 547 c 2
 1376.5 584 l 1
 1376.5 365 l 1
 1348.5 351 l 2
 1258.5 306 1172.5 281 1092.5 281 c 0
 713.5 281 607.5 559 607.5 795 c 0
 607.5 1102 779.5 1309 1075.5 1309 c 0
 1176.5 1309 1299.5 1271 1343.5 1243 c 2
 1367.5 1228 l 1
 1367.5 1018 l 1
 1293.5 1055 l 2
 1260.5 1072 1171.5 1100 1071.5 1100 c 0
 889.5 1100 843.5 946 843.5 795 c 0
EndSplineSet
EndChar

StartChar: uni0202
Encoding: 275 514 174
Width: 1460
GlyphClass: 2
HStem: 0 21<7 381.943 1078.06 1453> 350 170<527 933> 1557 20<520.405 939.595> 1826 183<546.25 913.75>
VStem: 256 200<1649 1746.87> 1004 200<1649 1746.87>
LayerCount: 2
Fore
SplineSet
730 1826 m 4
 522 1824.99 476 1737 456 1649 c 5
 256 1649 l 5
 298 1901 456 2009 730 2009 c 4
 1004 2009 1162 1901 1204 1649 c 5
 1004 1649 l 5
 984 1737 936 1827 730 1826 c 4
EndSplineSet
Refer: 26 65 N 1 0 0 1 0 0 3
EndChar

StartChar: uni0203
Encoding: 276 515 175
Width: 1142
GlyphClass: 2
Flags: HW
HStem: -18 235<420.334 629.926> 0 21<792.849 1050.25> 547 182<425.861 722.249> 936 250<291.148 685.696> 1415 183<395.499 762.999>
VStem: 49.249 328<258.965 501.974> 105.249 200<1238 1335.87> 722.249 328.001<274.797 543.915 717 898.689> 853.249 200.001<1238 1335.87>
LayerCount: 2
Fore
SplineSet
579.249 1415 m 4x3a80
 371.249 1413.99 325.249 1326 305.249 1238 c 5
 105.249 1238 l 5
 147.249 1490 305.249 1598 579.249 1598 c 4
 853.249 1598 1011.25 1490 1053.25 1238 c 5
 853.249 1238 l 5
 833.249 1326 785.249 1416 579.249 1415 c 4x3a80
EndSplineSet
Refer: 57 97 N 1 0 0 1 0 0 3
EndChar

StartChar: uni0206
Encoding: 277 518 176
Width: 1234
GlyphClass: 2
Flags: W
HStem: 0 223<467 1186> 742 197<467 1086> 1374 203<467 1176> 1826 183<463.75 831.25>
VStem: 106 361<223 742 939 1374> 173.5 200<1649 1746.87> 921.5 200<1649 1746.87>
LayerCount: 2
Fore
SplineSet
647.5 1826 m 4xf6
 439.5 1824.99 393.5 1737 373.5 1649 c 5
 173.5 1649 l 5
 215.5 1901 373.5 2009 647.5 2009 c 4
 921.5 2009 1079.5 1901 1121.5 1649 c 5
 921.5 1649 l 5
 901.5 1737 853.5 1827 647.5 1826 c 4xf6
EndSplineSet
Refer: 30 69 N 1 0 0 1 0 0 3
EndChar

StartChar: uni0207
Encoding: 278 519 177
Width: 1207
GlyphClass: 2
Flags: W
HStem: -16 238<559.738 925.392> 502 174<437.967 847.967> 950 236<530.869 764.523> 1415.27 183<487.22 854.72>
VStem: 77.793 360.174<351.604 502 676 823.575> 196.97 200<1238.27 1336.14> 847.967 283.993<676 864.012> 944.97 200<1238.27 1336.14>
LayerCount: 2
Fore
SplineSet
670.97 1415.27 m 4xf5
 462.97 1414.26 416.97 1326.27 396.97 1238.27 c 5
 196.97 1238.27 l 5
 238.97 1490.27 396.97 1598.27 670.97 1598.27 c 4
 944.97 1598.27 1102.97 1490.27 1144.97 1238.27 c 5
 944.97 1238.27 l 5
 924.97 1326.27 876.97 1416.27 670.97 1415.27 c 4xf5
EndSplineSet
Refer: 61 101 N 1 0 0 1 0 0 3
EndChar

StartChar: uni020A
Encoding: 279 522 178
Width: 894
GlyphClass: 2
HStem: 0 170<92 262 633 802> 1407 170<92 262 633 802> 1826 183<263.25 630.75>
VStem: -27 200<1649 1746.87> 262 371<170 1407> 721 200<1649 1746.87>
LayerCount: 2
Fore
SplineSet
447 1826 m 4
 239 1824.99 193 1737 173 1649 c 5
 -27 1649 l 5
 15 1901 173 2009 447 2009 c 4
 721 2009 879 1901 921 1649 c 5
 721 1649 l 5
 701 1737 653 1827 447 1826 c 4
EndSplineSet
Refer: 34 73 N 1 0 0 1 0 0 3
EndChar

StartChar: uni020B
Encoding: 280 523 179
Width: 602
GlyphClass: 2
Flags: W
HStem: 0 21<126 476> 1140 20<126 476> 1415 183<117.25 484.75>
VStem: -173 200<1238 1335.87> 126 350<0 1160> 575 200<1238 1335.87>
CounterMasks: 1 1c
LayerCount: 2
Fore
SplineSet
301 1415 m 4
 93 1413.99 47 1326 27 1238 c 5
 -173 1238 l 5
 -131 1490 27 1598 301 1598 c 4
 575 1598 733 1490 775 1238 c 5
 575 1238 l 5
 555 1326 507 1416 301 1415 c 4
EndSplineSet
Refer: 455 305 N 1 0 0 1 0 0 3
EndChar

StartChar: uni020E
Encoding: 281 526 180
Width: 1568
GlyphClass: 2
Flags: W
HStem: -28 266<625.155 942.845> 1339 266<625.155 942.845> 1826 183<600.25 967.75>
VStem: 76 367.125<468.908 1108.95> 310 200<1649 1746.87> 1058 200<1649 1746.87> 1124.88 367.12<468.908 1108.95>
LayerCount: 2
Fore
SplineSet
784 1826 m 4xec
 576 1824.99 530 1737 510 1649 c 5
 310 1649 l 5
 352 1901 510 2009 784 2009 c 4
 1058 2009 1216 1901 1258 1649 c 5
 1058 1649 l 5
 1038 1737 990 1827 784 1826 c 4xec
EndSplineSet
Refer: 40 79 N 1 0 0 1 0 0 3
EndChar

StartChar: uni020F
Encoding: 282 527 181
Width: 1294
GlyphClass: 2
Flags: W
HStem: -16 234<525.664 768.336> 950 236<525.794 768.206> 1415 183<463.25 830.75>
VStem: 78 349<330.597 836.293> 173 200<1238 1335.87> 867 349<330.597 836.293> 921 200<1238 1335.87>
LayerCount: 2
Fore
SplineSet
647 1415 m 4xea
 439 1413.99 393 1326 373 1238 c 5
 173 1238 l 5
 215 1490 373 1598 647 1598 c 4
 921 1598 1079 1490 1121 1238 c 5
 921 1238 l 5
 901 1326 853 1416 647 1415 c 4xea
EndSplineSet
Refer: 71 111 N 1 0 0 1 0 0 3
EndChar

StartChar: uni0212
Encoding: 283 530 182
Width: 1453
GlyphClass: 2
Flags: W
HStem: 0 21<110 477 946 1311> 696 223<477 837.315> 1374 203<477 873.501> 1826 183<510.404 877.903>
VStem: 110 367<0 696 919 1374> 220.154 200<1649 1746.87> 946 365<0 591.42> 966 353<1017.63 1285.65> 968.154 199.996<1649 1746.87>
LayerCount: 2
Fore
SplineSet
694.154 1826 m 4xf480
 486.154 1824.99 440.154 1737 420.154 1649 c 5
 220.154 1649 l 5
 262.154 1901 420.154 2009 694.154 2009 c 4
 968.154 2009 1126.15 1901 1168.15 1649 c 5
 968.154 1649 l 5
 948.154 1737 900.154 1827 694.154 1826 c 4xf480
EndSplineSet
Refer: 43 82 N 1 0 0 1 0 0 3
EndChar

StartChar: uni0213
Encoding: 284 531 183
Width: 811
GlyphClass: 2
Flags: W
HStem: 0 21<106 458> 926 257<559.959 798.963> 1140 20<106 413.755> 1415 183<280.75 648.25>
VStem: -9.5 200<1238 1335.87> 106 352<0 870.6> 738.5 200<1238 1335.87>
LayerCount: 2
Fore
SplineSet
464.5 1415 m 4x9a
 256.5 1413.99 210.5 1326 190.5 1238 c 5
 -9.5 1238 l 5
 32.5 1490 190.5 1598 464.5 1598 c 4
 738.5 1598 896.5 1490 938.5 1238 c 5
 738.5 1238 l 5
 718.5 1326 670.5 1416 464.5 1415 c 4x9a
EndSplineSet
Refer: 74 114 N 1 0 0 1 0 0 3
EndChar

StartChar: uni0216
Encoding: 285 534 184
Width: 1552
GlyphClass: 2
HStem: -37 266<603.944 944.857> 1557 20<118 466 1086 1434> 1826 183<592.25 959.75>
VStem: 118 348<390.369 1577> 302 200<1649 1746.87> 1050 200<1649 1746.87> 1086 348<383.896 1577>
LayerCount: 2
Fore
SplineSet
776 1826 m 4xec
 568 1824.99 522 1737 502 1649 c 5
 302 1649 l 5
 344 1901 502 2009 776 2009 c 4
 1050 2009 1208 1901 1250 1649 c 5
 1050 1649 l 5
 1030 1737 982 1827 776 1826 c 4xec
EndSplineSet
Refer: 46 85 N 1 0 0 1 0 0 3
EndChar

StartChar: uni0217
Encoding: 286 535 185
Width: 1226
GlyphClass: 2
Flags: W
HStem: 0 21<372.837 607 868.778 1126> 1140 20<92 444 774 1126> 1415 183<430.25 797.75>
VStem: 92 352<264.012 1160> 140 200<1238 1335.87> 774 352<257.689 1160> 888 200<1238 1335.87>
LayerCount: 2
Fore
SplineSet
614 1415 m 4xea
 406 1413.99 360 1326 340 1238 c 5
 140 1238 l 5
 182 1490 340 1598 614 1598 c 4
 888 1598 1046 1490 1088 1238 c 5
 888 1238 l 5
 868 1326 820 1416 614 1415 c 4xea
EndSplineSet
Refer: 77 117 N 1 0 0 1 0 0 3
EndChar

StartChar: afii10025
Encoding: 292 1047 191
Width: 1347
GlyphClass: 2
Flags: W
HStem: -39 277<340.31 830.728> 631 303<408 854.906>
VStem: 911 340<312.667 577.359>
LayerCount: 2
Fore
SplineSet
911 1139 m 1
 882.704 1433.47 409.68 1314.29 221.5 1235 c 1
 147 1235 l 1
 147 1506.5 l 1
 378.443 1610.29 693.54 1629.01 925.5 1564 c 0
 1004.75 1541.79 1063.56 1500.23 1113 1458 c 0
 1287.47 1308.95 1303.7 901.003 1090 780 c 1
 1187.2 709.828 1240.86 602.828 1251 459 c 1
 1251 391 l 1
 1241.96 98.8244 990.523 -48.0027 651 -39 c 0
 480.836 -34.488 334.557 -5.2876 212 43 c 1
 147 43 l 1
 147 348.5 l 1
 292.459 284.181 470.686 244.745 621 238 c 0
 723.012 233.422 800.241 254.798 851 296 c 0
 887.329 325.488 906.873 369.381 911 426 c 1
 911 446 l 1
 907.611 541.838 866.611 603.505 788 631 c 1
 408 631 l 1
 408 934 l 1
 786 934 l 1
 862.392 962.894 904.059 1024.23 911 1118 c 1
 911 1139 l 1
EndSplineSet
EndChar

StartChar: afii10026
Encoding: 293 1048 192
Width: 1595
GlyphClass: 2
Flags: W
HStem: 0 21G<119 442 1124 1456> 1559 20G<119 453 1054.37 1456>
VStem: 119 334<0 223 737 1579> 1124 332<0 1110>
LayerCount: 2
Fore
SplineSet
453 1579 m 1
 453 737 l 1
 1069 1579 l 1
 1456 1579 l 1
 1456 0 l 1
 1124 0 l 1
 1124 1110 l 1
 442 223 l 1
 442 0 l 1
 119 0 l 1
 119 1579 l 1
 453 1579 l 1
EndSplineSet
EndChar

StartChar: afii10029
Encoding: 296 1051 195
Width: 1357
GlyphClass: 2
Flags: W
HStem: 0 21G<1022 1370> 1321 250<664 1022>
VStem: 333.5 348.5<356.445 1312.78> 1022 348<0 1321>
LayerCount: 2
Fore
SplineSet
2.9398 48.3052 m 1
 -63 330 l 1
 62.3333 291.333 138.667 272 166 272 c 0
 250.113 272 309.438 317.485 333.5 374 c 1
 333.5 1571 l 1
 1370 1571 l 1
 1370 0 l 1
 1022 0 l 1
 1022 1321 l 1
 664 1321 l 1
 676 1145 682 1009.33 682 914 c 0
 682 583.533 669.584 222.154 488.5 71 c 0
 378.163 -21.1005 130.874 -9.89115 2.9398 48.3052 c 1
EndSplineSet
EndChar

StartChar: afii10033
Encoding: 300 1055 199
Width: 1529
GlyphClass: 2
Flags: W
HStem: 0 21G<90 434 975 1321> 1331 242<434 975>
VStem: 90 344<0 1331> 975 346<0 1331>
LayerCount: 2
Fore
SplineSet
90 1573 m 1
 1321 1573 l 1
 1321 0 l 1
 975 0 l 1
 975 1331 l 1
 434 1331 l 1
 434 0 l 1
 90 0 l 1
 90 1573 l 1
EndSplineSet
EndChar

StartChar: afii10037
Encoding: 304 1059 203
Width: 1085
GlyphClass: 2
Flags: W
HStem: 1553 20G<-106 267.133 720.809 1094>
LayerCount: 2
Fore
SplineSet
-106 1573 m 1
 260 1573 l 1
 510 872 l 1
 727 1573 l 1
 1094 1573 l 1
 613.035 254.335 l 1
 578.673 180.125 524.726 114.531 475.979 75.0921 c 0
 384.813 1.33459 266.392 -43.4073 119 -57 c 1
 20 186 l 1
 231.841 228.286 280.121 257.554 348 440 c 1
 -106 1573 l 1
EndSplineSet
EndChar

StartChar: afii10038
Encoding: 305 1060 204
Width: 2183
GlyphClass: 2
Flags: W
HStem: -37 277<575.199 875.21 1209.91 1515.88> 1331 275<571.452 875.167 1210.08 1514.56>
VStem: 51 350<464.876 1120.86> 877 331<-102 -25 249.85 1319.8 1597 1686> 1688 350<463.125 1118.94>
LayerCount: 2
Fore
SplineSet
739 1331 m 0
 471.477 1331 401.051 1105.93 401 784 c 0
 401 421.333 513.667 240 739 240 c 0
 794.333 240 840.333 248 877 264 c 1
 877 1305 l 1
 839.667 1322.33 793.667 1331 739 1331 c 0
51 784 m 0
 51 1283.52 251.844 1597.05 739 1606 c 0
 790.333 1606 836.333 1603 877 1597 c 1
 877 1686 l 1
 1208 1686 l 1
 1208 1593 l 1
 1254.67 1601.67 1314.5 1606 1387.5 1606 c 0
 1831.88 1606 2042.43 1273.49 2038 784 c 0
 2034.38 282.449 1838.5 -37 1348 -37 c 0
 1297.33 -37 1250.67 -33 1208 -25 c 1
 1208 -102 l 1
 877 -102 l 1
 877 -25 l 1
 837.667 -33 785 -37 719 -37 c 0
 250.305 -37 51 290.625 51 784 c 0
1688 785 m 0
 1687.46 1108.34 1617.11 1331 1348 1331 c 0
 1296.67 1331 1250 1322.33 1208 1305 c 1
 1208 264 l 1
 1246.67 248 1293.33 240 1348 240 c 0
 1613.99 240 1688.62 464.175 1688 785 c 0
EndSplineSet
EndChar

StartChar: afii10040
Encoding: 307 1062 206
Width: 1529
GlyphClass: 2
Flags: W
HStem: 0 242<438 1028> 1553 20G<90 438 1028 1372>
VStem: 90 348<242 1573> 1028 344<242 1573>
LayerCount: 2
Fore
SplineSet
90 0 m 1
 90 1573 l 1
 438 1573 l 1
 438 242 l 1
 1028 242 l 1
 1028 1573 l 1
 1372 1573 l 1
 1372 0 l 1
 90 0 l 1
EndSplineSet
EndChar

StartChar: afii10041
Encoding: 308 1063 207
Width: 1214
GlyphClass: 2
Flags: W
HStem: 0 21G<813 1157> 530 271<376.597 813> 1553 20G<-2 342 813 1157>
VStem: -2 344<842.229 1573> 813 344<0 532 801 1573>
LayerCount: 2
Fore
SplineSet
342 1022 m 1
 343.632 893.623 360.509 801 467 801 c 2
 813 801 l 1
 813 1573 l 1
 1157 1573 l 1
 1157 0 l 1
 813 0 l 1
 813 532 l 1
 747.667 530.667 635.167 530 475.5 530 c 0
 153.77 529.612 -2 693.594 -2 1022 c 2
 -2 1573 l 1
 342 1573 l 1
 342 1022 l 1
EndSplineSet
EndChar

StartChar: afii10042
Encoding: 309 1064 208
Width: 1832
GlyphClass: 2
Flags: W
HStem: 0 242<442 702 1049 1309> 1551 20G<98 442 702 1049 1309 1653>
VStem: 98 344<242 1571> 702 347<242 1571> 1309 344<242 1573>
CounterMasks: 1 38
LayerCount: 2
Fore
SplineSet
98 0 m 1
 98 1571 l 1
 442 1571 l 1
 442 242 l 1
 702 242 l 1
 702 1571 l 1
 1049 1571 l 1
 1049 242 l 1
 1309 242 l 1
 1309 1573 l 1
 1653 1573 l 1
 1653 0 l 1
 98 0 l 1
EndSplineSet
EndChar

StartChar: afii10043
Encoding: 310 1065 209
Width: 1832
GlyphClass: 2
Flags: W
HStem: 0 242<442 702 1049 1309> 1551 20G<98 442 702 1049 1309 1653>
VStem: 98 344<242 1571> 702 347<242 1571> 1309 344<242 1573>
CounterMasks: 1 38
LayerCount: 2
Fore
SplineSet
98 0 m 1
 98 1571 l 1
 442 1571 l 1
 442 242 l 1
 702 242 l 1
 702 1571 l 1
 1049 1571 l 1
 1049 242 l 1
 1309 242 l 1
 1309 1573 l 1
 1653 1573 l 1
 1653 0 l 1
 98 0 l 1
EndSplineSet
EndChar

StartChar: afii10044
Encoding: 311 1066 210
Width: 1255
GlyphClass: 2
Flags: W
HStem: 0 268<434 754.615> 719 254<434 759.271> 1557 20G<86 434>
VStem: 86 348<268 719 973 1577> 856.689 337.311<359.091 627.256>
LayerCount: 2
Fore
SplineSet
434 268 m 1
 663.789 274.464 861.376 267.571 856.689 497.358 c 0
 852.819 687.061 720.749 715.535 504 719 c 1
 434 719 l 1
 434 268 l 1
1194 479 m 0
 1194 79.4948 875.495 0.256199 471 0 c 2
 86 0 l 1
 86 1577 l 1
 434 1577 l 1
 434 973 l 1
 500 973 l 1
 894.928 971.339 1194 869.867 1194 479 c 0
EndSplineSet
EndChar

StartChar: afii10045
Encoding: 312 1067 211
Width: 1255
GlyphClass: 2
Flags: W
HStem: 0 268<442 762.615> 719 254<442 767.271> 1559 18G<94 442 1204 1548>
VStem: 94 348<268 719 973 1577> 866.757 335.243<359.091 627.256> 1204 344<0 1579>
LayerCount: 2
Fore
SplineSet
1548 0 m 1
 1204 0 l 1
 1204 1579 l 1
 1548 1579 l 1
 1548 0 l 1
442 268 m 1
 671.919 274.637 871.304 267.269 866.757 496.727 c 0
 863.009 685.875 728.431 715.749 512 719 c 1
 442 719 l 1
 442 268 l 1
1202 479 m 0
 1202 79.4948 883.495 0.256199 479 0 c 2
 94 0 l 1
 94 1577 l 1
 442 1577 l 1
 442 973 l 1
 508 973 l 1
 902.928 971.339 1202 869.867 1202 479 c 0
EndSplineSet
EndChar

StartChar: afii10046
Encoding: 313 1068 212
Width: 1255
GlyphClass: 2
Flags: W
HStem: 0 268<434 754.615> 719 254<434 759.271> 1557 20G<86 434>
VStem: 86 348<268 719 973 1577> 856.689 337.311<359.091 627.256>
LayerCount: 2
Fore
SplineSet
434 268 m 1
 663.789 274.464 861.376 267.571 856.689 497.358 c 0
 852.819 687.061 720.749 715.535 504 719 c 1
 434 719 l 1
 434 268 l 1
1194 479 m 0
 1194 79.4948 875.495 0.256199 471 0 c 2
 86 0 l 1
 86 1577 l 1
 434 1577 l 1
 434 973 l 1
 500 973 l 1
 894.928 971.339 1194 869.867 1194 479 c 0
EndSplineSet
EndChar

StartChar: afii10048
Encoding: 314 1070 213
Width: 2086
GlyphClass: 2
Flags: W
HStem: -37 277<1098.8 1417.12> 0 21G<104 451> 696 244<451 576.034> 1559 20G<104 451 1042.95 1506.58>
VStem: 104 347<0 696 940 1579> 573 349<463.258 696 940 1115.81> 1599 351<463.42 1109.58>
LayerCount: 2
Fore
SplineSet
1599 784 m 0xbe
 1598.52 1107 1527.57 1315.65 1259.5 1331 c 1
 991.752 1317.14 922.281 1106.13 922 784 c 0
 922 421.333 1034.83 240 1260.5 240 c 0
 1486.17 240 1599 421.333 1599 784 c 0xbe
1260 -37 m 0
 804.237 -37 599.783 246.992 573 696 c 1
 451 696 l 1
 451 0 l 1
 104 0 l 1x7e
 104 1579 l 1
 451 1579 l 1
 451 940 l 1
 578 940 l 1
 624.046 1348.78 820.907 1606 1265 1606 c 0
 1748.16 1606 1950 1281.67 1950 784 c 0
 1950 283.561 1748.55 -37 1260 -37 c 0
EndSplineSet
EndChar

StartChar: afii10049
Encoding: 315 1071 214
Width: 1368
GlyphClass: 2
Flags: W
HStem: 0 21G<14 348 850 1196> 666 256<434.95 850> 1311 260<417.281 850>
VStem: 14 334<0 585.264> 850 346<0 666 922 1311>
LayerCount: 2
Fore
SplineSet
735 666 m 1
 486.929 658.925 348 652.342 348 440 c 2
 348 0 l 1
 14 0 l 1
 14 428 l 1
 10.537 615.482 71.537 739.816 197 801 c 1
 100.033 859.874 17.2645 966.15 14 1103.5 c 0
 7.03625 1433.5 196.23 1571 499.5 1571 c 2
 1196 1571 l 1
 1196 0 l 1
 850 0 l 1
 850 666 l 1
 735 666 l 1
850 922 m 1
 850 1311 l 1
 555.5 1311 l 1
 468.991 1305.74 408.324 1276.57 373.5 1236.5 c 0
 320.305 1174.77 328.582 1030.45 388.5 991.5 c 1
 468.433 924.262 610.581 923.009 760 922 c 1
 850 922 l 1
EndSplineSet
EndChar

StartChar: afii10066
Encoding: 317 1073 216
Width: 1093
GlyphClass: 2
Flags: W
HStem: -16 254<403.943 648.287>
VStem: 6 318<330.64 760.102> 731 309<330.344 752.471>
LayerCount: 2
Fore
SplineSet
1040 541 m 0
 1040 198.129 868.175 -16 526 -16 c 0
 179.333 -16 6 207.667 6 655 c 0
 6 874.198 39.8808 999.433 128.5 1110.5 c 0
 208.197 1210.38 331.642 1253.85 461.923 1308.81 c 2
 844 1470 l 1
 940 1217 l 1
 825.333 1167.67 723 1126.67 633 1094 c 1
 900.384 1045.24 1040 845.768 1040 541 c 0
324 541.5 m 0
 323.744 368.963 374.543 238 527 238 c 0
 678.99 238 731 369.692 731 541.5 c 0
 731 713.223 678.041 852 526.5 852 c 0
 375.271 852 323.384 712.3 324 541.5 c 0
EndSplineSet
EndChar

StartChar: afii10067
Encoding: 318 1074 217
Width: 1216
GlyphClass: 2
Flags: W
HStem: -2 244<399 722.149> 481 234<399 706.071> 924 243<399 701.776>
VStem: 63 336<242 481 715 924> 721 325.81<733.875 900.834> 743.757 325.243<254.164 460.156>
LayerCount: 2
Fore
SplineSet
418 1167 m 1xf4
 763.628 1165.42 1037.33 1150.9 1046.81 831.763 c 0xf8
 1049.76 732.644 1010 656.667 936 604 c 1
 1024.67 556.667 1069 479.667 1069 373 c 0
 1068.26 56.2943 818.082 -2 498 -2 c 2
 63 -2 l 1
 63 1167 l 1
 418 1167 l 1xf4
573 481 m 2
 399 481 l 1
 399 242 l 1
 695.5 242 l 1
 724.32 262.993 746.16 323.955 743.757 379.377 c 0xf4
 738.48 468.326 678.135 481 573 481 c 2
721 829 m 0xf8
 721 932.622 594.24 915.927 494.5 924 c 1
 399 924 l 1
 399 715 l 1
 537 715 l 1
 661.558 719.588 721 718.375 721 829 c 0xf8
EndSplineSet
EndChar

StartChar: afii10068
Encoding: 319 1075 218
Width: 1425
GlyphClass: 2
Flags: W
HStem: 0 21G<84 422> 930 237<422 895>
VStem: 84 338<0 930>
LayerCount: 2
Fore
SplineSet
895 1167 m 1
 895 930 l 1
 422 930 l 1
 422 0 l 1
 84 0 l 1
 84 1167 l 1
 895 1167 l 1
EndSplineSet
EndChar

StartChar: afii10069
Encoding: 320 1076 219
Width: 1425
GlyphClass: 2
Flags: W
HStem: 0 238<459 795> 930 237<502 795>
VStem: 795 338<-139 0 238 930>
LayerCount: 2
Fore
SplineSet
4 63 m 1
 118.173 100.522 170.771 149.841 178 268 c 2
 233 1167 l 1
 1133 1167 l 1
 1133 -139 l 1
 795 -139 l 1
 795 0 l 1
 432 0 l 1
 361.333 -89.3333 220 -164 4 -209 c 1
 4 63 l 1
459 238 m 1
 795 238 l 1
 795 930 l 1
 502 930 l 1
 459 238 l 1
EndSplineSet
EndChar

StartChar: afii10072
Encoding: 322 1078 221
Width: 1236
GlyphClass: 2
Flags: W
HStem: 0 21G<-129 251.667 406 717 875.457 1255> 1147 22G<-133 256.156 414 711 874.371 1260>
VStem: 406 311<0 246 926 1167>
LayerCount: 2
Fore
SplineSet
414 926 m 1
 414 1167 l 1
 711 1167 l 1
 710.218 924.572 l 1
 889 1169 l 1
 1260 1169 l 1
 815 586 l 1
 1255 0 l 1
 889 0 l 1
 717 254 l 1
 717 0 l 1
 406 0 l 1
 406 246 l 1
 313.333 117.333 263.333 35.3333 240 0 c 1
 -129 0 l 1
 311 584 l 1
 -133 1169 l 1
 242 1169 l 1
 414 926 l 1
EndSplineSet
EndChar

StartChar: afii10073
Encoding: 323 1079 222
Width: 1255
GlyphClass: 2
Flags: W
HStem: 0 258<212.66 551.528> 475 240<287 534.841>
VStem: 569 318<279.623 438.339 743.081 900.788>
LayerCount: 2
Fore
SplineSet
287 715 m 1
 457.192 723.522 554.577 701.882 571 827 c 1
 571 888.333 533 915.667 457 909 c 1
 356.018 893.838 223.685 867.838 138 831 c 1
 80 831 l 1
 80 1090 l 1
 137 1090 l 1
 137 1114 l 1
 210.039 1146.04 298.706 1163.04 403 1165 c 1
 718.333 1165 889 1049 889 817 c 0
 889 719 852.667 642 780 586 c 1
 844.257 533.773 887 456.684 887 354 c 0
 887 84.1346 674.676 6.05606 403 0 c 1
 319.667 0 230 16.3333 150 49 c 1
 80 49 l 1
 80 354 l 1
 181.564 305.506 292.897 273.506 414 258 c 1
 508.095 260.284 567.494 270.38 569 359.5 c 1
 552.621 472.886 447.366 470.135 287 475 c 1
 287 715 l 1
EndSplineSet
EndChar

StartChar: afii10074
Encoding: 324 1080 223
Width: 1218
GlyphClass: 2
Flags: W
HStem: 0 21G<61 367 780 1090> 1147 20G<61 369 739.793 1090>
VStem: 61 308<-12 154 625 1167> 780 310<0 715>
LayerCount: 2
Fore
SplineSet
369 1167 m 1
 369 625 l 1
 754 1167 l 1
 1090 1167 l 1
 1090 0 l 1
 780 0 l 1
 780 715 l 1
 367 154 l 1
 367 -12 l 1
 61 -12 l 1
 61 1167 l 1
 369 1167 l 1
EndSplineSet
EndChar

StartChar: afii10076
Encoding: 326 1082 225
Width: 1153
GlyphClass: 2
Flags: W
HStem: 0 21G<72 408 781.737 1200> 1147 22G<72 399 753.282 1190>
VStem: 72 336<0 453 807 1167>
LayerCount: 2
Fore
SplineSet
408 453 m 1
 408 0 l 1
 72 0 l 1
 72 1167 l 1
 399 1167 l 1
 399 807 l 1
 774 1169 l 1
 1190 1169 l 1
 622 634.643 l 1
 1200 0 l 1
 799 0 l 1
 408 453 l 1
EndSplineSet
EndChar

StartChar: afii10077
Encoding: 327 1083 226
Width: 1425
GlyphClass: 2
Flags: W
HStem: 0 21G<797 1133> 930 237<541 797>
VStem: 797 336<0 930>
LayerCount: 2
Fore
SplineSet
238 1167 m 1
 1133 1167 l 1
 1133 0 l 1
 797 0 l 1
 797 930 l 1
 541 930 l 1
 509 404.5 l 5
 506.531 164.979 382.473 61.2209 213 -8.5 c 0
 150.85 -34.0683 83.4954 -53.0282 12 -68 c 1
 12 205 l 1
 74.7905 226.827 142.293 256.512 173.836 297.352 c 1
 238 1167 l 1
EndSplineSet
EndChar

StartChar: afii10078
Encoding: 328 1084 227
Width: 1945
GlyphClass: 2
Flags: W
HStem: 0 21G<76 348 518.409 836.569 1008 1329> 1147 20G<76 452.686 902.227 1329>
VStem: 76 272<0 469> 1008 321<0 473>
LayerCount: 2
Fore
SplineSet
526 0 m 1
 348 469 l 1
 348 0 l 1
 76 0 l 1
 76 1167 l 1
 446 1167 l 1
 676 479 l 1
 909 1167 l 1
 1329 1167 l 1
 1329 0 l 1
 1008 0 l 1
 1008 473 l 1
 829 0 l 1
 526 0 l 1
EndSplineSet
EndChar

StartChar: afii10079
Encoding: 329 1085 228
Width: 1382
GlyphClass: 2
Flags: W
HStem: 0 21G<94 432 870 1206> 487 238<432 870> 1147 20G<94 432 870 1206>
VStem: 94 338<0 487 725 1167> 870 336<0 487 725 1167>
LayerCount: 2
Fore
SplineSet
870 0 m 1
 870 487 l 1
 432 487 l 1
 432 0 l 1
 94 0 l 1
 94 1167 l 1
 432 1167 l 1
 432 725 l 1
 870 725 l 1
 870 1167 l 1
 1206 1167 l 1
 1206 0 l 1
 870 0 l 1
EndSplineSet
EndChar

StartChar: afii10084
Encoding: 334 1090 233
Width: 1048
GlyphClass: 2
Flags: W
HStem: 0 21G<330 664> 907 260<-61 330 664 1049>
VStem: 330 334<0 907>
LayerCount: 2
Fore
SplineSet
664 907 m 1
 664 0 l 1
 330 0 l 1
 330 907 l 1
 -61 907 l 1
 -61 1167 l 1
 1049 1167 l 1
 1049 907 l 1
 664 907 l 1
EndSplineSet
EndChar

StartChar: afii10086
Encoding: 336 1092 235
Width: 1519
GlyphClass: 2
Flags: W
HStem: -16 247<868 980.675> 944 242<458.948 555 866 976.449> 1326 20G<555 864>
VStem: 29 323<368.741 826.462> 563 303<-168 -16 242 944 1186 1346> 1075 328<336.959 830.892>
LayerCount: 2
Fore
SplineSet
565 -16 m 1
 193.677 -5.48226 29 217.13 29 595 c 0
 29 943.985 195.459 1181.22 555 1186 c 1
 555 1346 l 1
 864 1346 l 1
 864 1186 l 1
 1227.14 1175.98 1403 945.988 1403 582 c 0
 1403 216.261 1232.52 -6.81055 868 -16 c 1
 868 -168 l 1
 565 -168 l 1
 565 -16 l 1
1075 584.5 m 0
 1075 775.651 1031.29 936.878 866 944 c 1
 866 231 l 1
 1032.3 236.997 1075 393.462 1075 584.5 c 0
563 944 m 1
 399.405 937.86 352.652 772.841 352 584 c 0
 352 387.333 422.333 273.333 563 242 c 1
 563 944 l 1
EndSplineSet
EndChar

StartChar: afii10088
Encoding: 338 1094 237
Width: 1425
GlyphClass: 2
Flags: W
HStem: 0 238<432 803> 1147 20G<96 432 803 1141>
VStem: 96 336<238 1167> 803 338<240 1167>
LayerCount: 2
Fore
SplineSet
96 0 m 1
 96 1167 l 1
 432 1167 l 1
 432 238 l 1
 803 238 l 1
 803 1167 l 1
 1141 1167 l 1
 1141 240 l 1
 1233 240 l 1
 1233 117 l 2
 1233 17 1242.67 -71 1262 -147 c 1
 948 -147 l 1
 926 -64.3333 914.333 -15.3333 913 0 c 1
 96 0 l 1
EndSplineSet
EndChar

StartChar: afii10089
Encoding: 339 1095 238
Width: 1095
GlyphClass: 2
Flags: W
HStem: 0 21G<664 997> 299 262<402.288 664> 1147 20G<31 365 664 997>
VStem: 31 334<587.643 1167> 664 333<0 299 561 1167>
LayerCount: 2
Fore
SplineSet
365 748 m 1
 366.593 625.903 383.488 561 487 561 c 2
 664 561 l 1
 664 1167 l 1
 997 1167 l 1
 997 0 l 1
 664 0 l 1
 664 299 l 1
 487 299 l 1
 169.061 301.791 31 427.106 31 748 c 2
 31 1167 l 1
 365 1167 l 1
 365 748 l 1
EndSplineSet
EndChar

StartChar: afii10090
Encoding: 340 1096 239
Width: 1861
GlyphClass: 2
Flags: W
HStem: 0 238<440 657 993 1198> 1147 20G<104 440 657 993 1198 1534>
VStem: 104 336<238 1167> 657 336<238 1167> 1198 336<238 1167>
LayerCount: 2
Fore
SplineSet
1534 0 m 1
 104 0 l 1
 104 1167 l 1
 440 1167 l 1
 440 238 l 1
 657 238 l 1
 657 1167 l 1
 993 1167 l 1
 993 238 l 1
 1198 238 l 1
 1198 1167 l 1
 1534 1167 l 1
 1534 0 l 1
EndSplineSet
EndChar

StartChar: afii10091
Encoding: 341 1097 240
Width: 1861
GlyphClass: 2
Flags: W
HStem: 0 238<444 662 997 1202> 1147 20G<109 444 662 997 1202 1538>
VStem: 109 335<238 1167> 662 335<238 1167> 1202 336<240 1167> 1335 295<-143.121 -1.0876>
LayerCount: 2
Fore
SplineSet
109 0 m 1xf4
 109 1167 l 1
 444 1167 l 1
 444 238 l 1
 662 238 l 1
 662 1167 l 1
 997 1167 l 1
 997 238 l 1
 1202 238 l 1
 1202 1167 l 1
 1538 1167 l 1
 1538 240 l 1xf8
 1630 240 l 1
 1630 117 l 2
 1630 23.6667 1641 -64.3333 1663 -147 c 1
 1346 -147 l 1
 1343.33 -135.667 1339.67 -121.5 1335 -104.5 c 1
 1335 -65 l 1
 1329.48 -44.8932 1314.82 -23.2265 1313 0 c 1
 109 0 l 1xf4
EndSplineSet
EndChar

StartChar: afii10092
Encoding: 342 1098 241
Width: 1148
GlyphClass: 2
Flags: W
HStem: 0 244<401 705.453> 463 246<401 722.908> 932 235<-109 66>
VStem: 66 335<244 463 709 932>
LayerCount: 2
Fore
SplineSet
475 709 m 1
 791.883 710.231 1042.58 674.66 1058.29 403.771 c 0
 1068.57 226.465 1020.64 135.54 913.5 75 c 0
 805.891 14.198 662.506 0 487 0 c 2
 66 0 l 1
 66 932 l 1
 -109 932 l 1
 -109 1167 l 1
 401 1167 l 1
 401 709 l 1
 475 709 l 1
487 244 m 1
 637.325 249.163 735 246.54 735 373 c 0
 735 430.416 698.919 450.144 653.5 463 c 1
 401 463 l 1
 401 244 l 1
 487 244 l 1
EndSplineSet
EndChar

StartChar: afii10093
Encoding: 343 1099 242
Width: 1583
GlyphClass: 2
Flags: W
HStem: 0 244<459 763.032> 463 246<459 775.95> 1147 20G<123 459 1067 1393>
VStem: 123 336<244 463 709 1167> 1067 326<0 170 553 1169>
LayerCount: 2
Fore
SplineSet
1067 170 m 1
 976.187 32.7351 797.766 0 555 0 c 2
 123 0 l 1
 123 1167 l 1
 459 1167 l 1
 459 709 l 1
 532 709 l 1
 781.93 705.836 969.264 688.703 1067 553 c 1
 1067 1169 l 1
 1393 1169 l 1
 1393 0 l 1
 1067 0 l 1
 1067 170 l 1
543 244 m 1
 694.563 249.455 793 245.12 793 373 c 0
 793 429.656 758.695 450.262 714 463 c 1
 459 463 l 1
 459 244 l 1
 543 244 l 1
EndSplineSet
EndChar

StartChar: afii10094
Encoding: 344 1100 243
Width: 1167
GlyphClass: 2
Flags: W
HStem: 0 244<426 726.676> 463 246<426 747.434> 1147 20G<90 426>
VStem: 90 336<244 463 709 1167> 758 322.9<277.816 447.476>
LayerCount: 2
Fore
SplineSet
498 709 m 1
 815.128 711.305 1073.95 669.497 1080.9 385.186 c 0
 1084.77 226.433 1034.57 132.279 933.5 76 c 0
 826.007 16.1429 684.212 0 510 0 c 2
 90 0 l 1
 90 1167 l 1
 426 1167 l 1
 426 709 l 1
 498 709 l 1
510 244 m 1
 660.325 249.163 758 246.54 758 373 c 0
 758 429.656 723.695 450.262 679 463 c 1
 426 463 l 1
 426 244 l 1
 510 244 l 1
EndSplineSet
EndChar

StartChar: afii10096
Encoding: 345 1102 244
Width: 1216
GlyphClass: 2
Flags: W
HStem: -16 260<440.33 702.802> 924 262<442.789 702.882>
VStem: 18 326<357.823 808.254> 799 325<357.723 808.208>
LayerCount: 2
Fore
SplineSet
344 582 m 0
 344 390.753 402.171 244 572 244 c 0
 741.634 244 799 391.689 799 582.5 c 0
 799 773.676 740.882 924 571.5 924 c 0
 402.809 924 344 771.747 344 582 c 0
571.5 -16 m 0
 202.104 -16 18 217.624 18 582 c 0
 18 951.871 201.868 1186 571.5 1186 c 0
 941.91 1186 1124 949.54 1124 582 c 0
 1124 216.01 939.66 -16 571.5 -16 c 0
EndSplineSet
EndChar

StartChar: afii10097
Encoding: 346 1103 245
Width: 1368
GlyphClass: 2
Flags: W
HStem: 0 21G<-47 323.333 582.62 901> 940 221<328.522 584>
VStem: 584 317<0 207.837 700 940>
LayerCount: 2
Fore
SplineSet
219 522 m 1
 83.2424 562.312 -2.13054 642.975 -6 788.5 c 0
 -9.57552 922.97 11.0956 991.367 71.5 1056.5 c 0
 135.799 1125.83 233.456 1161 357 1161 c 2
 901 1161 l 1
 901 0 l 1
 584 0 l 1
 550.291 488.697 l 1
 457 311 l 1
 397.667 201 345.667 97.3333 301 0 c 1
 -47 0 l 1
 219 522 l 1
584 700 m 1
 584 940 l 1
 454.496 944.984 391.786 935.694 334 901 c 0
 276.65 866.569 299.255 750.509 348.5 731 c 1
 404.725 701.685 493.017 699.569 584 700 c 1
EndSplineSet
EndChar

StartChar: dagger
Encoding: 540 8224 439
Width: 1157
GlyphClass: 2
Flags: W
HStem: 0 21G<383 715> 901 260<84 383 717 1006>
VStem: 383 332<0 901 1161 1434>
LayerCount: 2
Fore
SplineSet
1006 901 m 1
 715 901 l 1
 715 0 l 1
 383 0 l 1
 383 901 l 1
 84 901 l 1
 84 1161 l 1
 383 1161 l 1
 383 1434 l 1
 717 1434 l 1
 717 1161 l 1
 1006 1161 l 1
 1006 901 l 1
EndSplineSet
EndChar

StartChar: daggerdbl
Encoding: 541 8225 440
Width: 1157
GlyphClass: 2
Flags: W
HStem: 0 21G<383 715> 270 258<84 383 715 1004> 901 260<84 383 717 1006>
VStem: 383 332<0 270 528 901 1161 1434>
LayerCount: 2
Fore
SplineSet
1006 901 m 1
 715 901 l 1
 715 528 l 1
 1004 528 l 1
 1004 270 l 1
 715 270 l 1
 715 0 l 1
 383 0 l 1
 383 270 l 1
 84 270 l 1
 84 528 l 1
 383 528 l 1
 383 901 l 1
 84 901 l 1
 84 1161 l 1
 383 1161 l 1
 383 1434 l 1
 717 1434 l 1
 717 1161 l 1
 1006 1161 l 1
 1006 901 l 1
EndSplineSet
EndChar

StartChar: bullet
Encoding: 542 8226 441
Width: 1216
GlyphClass: 2
Flags: W
HStem: 317 727<429.619 793.758>
VStem: 221 783<514.08 846.098>
LayerCount: 2
Fore
SplineSet
611.5 317 m 0
 405.141 317 221 477.949 221 680 c 0
 221 881.909 405.435 1044 611.5 1044 c 0
 817.688 1044 1004 881.957 1004 680 c 0
 1004 478.014 817.369 317 611.5 317 c 0
EndSplineSet
EndChar

StartChar: guilsinglleft
Encoding: 544 8249 443
Width: 696
GlyphClass: 2
Flags: W
LayerCount: 2
Fore
SplineSet
1212 862 m 1
 448.167 579.473 l 1
 1212 285 l 1
 1212 -51 l 1
 -10 453 l 1
 -10 696 l 1
 1212 1200 l 1
 1212 862 l 1
EndSplineSet
EndChar

StartChar: guilsinglright
Encoding: 545 8250 444
Width: 1268
GlyphClass: 2
Flags: W
LayerCount: 2
Fore
SplineSet
742.376 569.688 m 1
 -10 862 l 1
 -10 1200 l 1
 1212 696 l 1
 1212 453 l 1
 -10 -51 l 1
 -10 285 l 1
 742.376 569.688 l 1
EndSplineSet
EndChar

StartChar: ff
Encoding: 548 64256 447
Width: 1554
GlyphClass: 3
HStem: 0 21G<150 500 857 1207> 998 162<0 150 501 857 1208 1558> 1320 254.5<641.833 787 1348.83 1494> 1345 259<531.282 785.393 1238.28 1492.39>
VStem: 150 350<0 998 1160 1310.45> 857 350<0 998 1160 1310.45>
LayerCount: 2
Fore
SplineSet
500 998 m 1xdc
 500 0 l 1
 150 0 l 1
 150 998 l 1
 0 998 l 1
 0 1160 l 1
 150 1160 l 1
 149 1426 272 1604 558 1604 c 0xdc
 643.323 1604 719.622 1591.77 787 1574.5 c 1
 787 1320 l 1xec
 787 1320 720 1345 638 1345 c 0
 546.088 1345 501 1308 501 1160 c 1
 857 1160 l 1
 856 1426 979 1604 1265 1604 c 0xdc
 1350.32 1604 1426.62 1591.77 1494 1574.5 c 1
 1494 1320 l 1xec
 1494 1320 1427 1345 1345 1345 c 0
 1253.09 1345 1208 1308 1208 1160 c 1
 1558 1160 l 1
 1558 998 l 1
 1207 998 l 1
 1207 0 l 1
 857 0 l 1
 857 998 l 1
 500 998 l 1xdc
EndSplineSet
LCarets2: 1 0 
Ligature2: "'liga' Standard Ligatures lookup 0-1" f f
EndChar

StartChar: dotlessi
Encoding: 556 305 455
Width: 602
GlyphClass: 2
Flags: W
HStem: 0 21G<126 476> 1140 20G<126 476>
VStem: 126 350<0 1160>
LayerCount: 2
Back
SplineSet
824 727.005 m 6xd8
 824 882.005 783 942.005 660.5 942.005 c 4xd8
 582.244 942.005 517.71 911.027 478 865.505 c 5
 478 0.00488281 l 5
 126 0.00488281 l 5
 126 1160 l 5
 392 1160 l 5xb8
 459 1021 l 5
 512 1101 624.05 1176 763 1176 c 4
 1057.33 1176 1176.09 1013.84 1176 701 c 6
 1176 0 l 5
 824 0.00488281 l 5
 824 727.005 l 6xd8
EndSplineSet
Fore
SplineSet
476 0 m 1
 126 0 l 1
 126 1160 l 1
 476 1160 l 1
 476 0 l 1
EndSplineSet
EndChar

StartChar: dotlessj
Encoding: 557 567 456
Width: 688
GlyphClass: 2
HStem: -348 21G<92.5532 222.036> 1140 20G<202 551>
VStem: 202 349<36.3234 1160>
LayerCount: 2
Back
SplineSet
899 727.005 m 6xd8
 899 882.005 858 942.005 735.5 942.005 c 4xd8
 657.244 942.005 592.71 911.026 553 865.505 c 5
 553 0.00488281 l 5
 201 0.00488281 l 5
 201 1160 l 5
 467 1160 l 5xb8
 534 1021 l 5
 587 1101 699.05 1176 838 1176 c 4
 1132.33 1176 1251.09 1013.84 1251 701 c 6
 1251 0 l 5
 899 0.00488281 l 5
 899 727.005 l 6xd8
EndSplineSet
Fore
SplineSet
-9 -113 m 1
 114.87 -43.0312 202 31.0113 202 223 c 2
 202 1160 l 1
 551 1160 l 1
 551 203 l 2
 551 -89.2559 342.073 -293.445 102 -348 c 1
 -9 -113 l 1
EndSplineSet
EndChar

StartChar: macron
Encoding: 558 713 457
Width: 1003
GlyphClass: 2
Flags: W
HStem: 98 127<98 780>
LayerCount: 2
Fore
SplineSet
780 98 m 1
 98 98 l 1
 98 225 l 5
 780 225 l 5
 780 98 l 1
EndSplineSet
EndChar

StartChar: bracketright
Encoding: 93 93 477
Width: 1157
Flags: W
HStem: 0 262<229 645> 1270 262<229 645>
VStem: 229 750<0 262 1270 1532> 645 334<262 1270>
LayerCount: 2
Fore
SplineSet
229 1532 m 1xe0
 979 1532 l 1
 979 0 l 1
 229 0 l 1
 229 262 l 1xe0
 645 262 l 1
 645 1270 l 1xd0
 229 1270 l 1
 229 1532 l 1xe0
EndSplineSet
EndChar

StartChar: Tcaron
Encoding: 579 356 479
Width: 1157
VWidth: 0
HStem: 0 21<408 756> 1374 203<-12 408 756 1168>
VStem: 408 348<0 1374>
LayerCount: 2
Fore
SplineSet
451 1719 m 0
 143 2338 l 0
 435 2338 l 0
 577 1894 l 0
 719 2338 l 4
 1013 2338 l 0
 705 1719 l 0
 451 1719 l 0
EndSplineSet
Refer: 45 84 N 1 0 0 1 0 0 3
EndChar

StartChar: Ecaron
Encoding: 583 282 483
Width: 1234
VWidth: 0
Flags: W
HStem: 0 223<467 1186> 742 197<467 1086> 1374 203<467 1176>
VStem: 106 361<223 742 939 1374>
LayerCount: 2
Fore
SplineSet
520.5 1719 m 0
 212.5 2338 l 0
 504.5 2338 l 0
 646.5 1894 l 0
 788.5 2338 l 4
 1082.5 2338 l 0
 774.5 1719 l 0
 520.5 1719 l 0
EndSplineSet
Refer: 30 69 N 1 0 0 1 0 0 3
EndChar

StartChar: Dcaron
Encoding: 584 270 484
Width: 1462
VWidth: 0
HStem: 0 243<475 825.164> 1354 223<475 806.955>
VStem: 104 371<243 1354> 1046 368<468.654 1111.91>
LayerCount: 2
Fore
SplineSet
635.5 1719 m 0
 327.5 2338 l 0
 619.5 2338 l 0
 761.5 1894 l 0
 903.5 2338 l 4
 1197.5 2338 l 0
 889.5 1719 l 0
 635.5 1719 l 0
EndSplineSet
Refer: 29 68 N 1 0 0 1 0 0 3
EndChar

StartChar: Ncaron
Encoding: 585 327 485
Width: 1611
VWidth: 0
HStem: 0 21<129 477 1068.03 1482> 1557 20<129 533.17 1133 1482>
VStem: 129 348<0 1098> 1133 349<483 1577>
LayerCount: 2
Fore
SplineSet
678.5 1719 m 0
 370.5 2338 l 0
 662.5 2338 l 0
 804.5 1894 l 0
 946.5 2338 l 4
 1240.5 2338 l 0
 932.5 1719 l 0
 678.5 1719 l 0
EndSplineSet
Refer: 39 78 N 1 0 0 1 0 0 3
EndChar

StartChar: Rcaron
Encoding: 586 344 486
Width: 1453
VWidth: 0
Flags: W
HStem: 0 21<110 477 946 1311> 696 223<477 837.315> 1374 203<477 873.501>
VStem: 110 367<0 696 919 1374> 946 365<0 591.42> 966 353<1017.63 1285.65>
LayerCount: 2
Fore
SplineSet
431.154 1719 m 0xf0
 123.154 2338 l 0
 415.154 2338 l 0
 557.154 1894 l 0
 699.154 2338 l 4
 993.154 2338 l 0
 685.154 1719 l 0
 431.154 1719 l 0xf0
EndSplineSet
Refer: 43 82 N 1 0 0 1 0 0 3
EndChar

StartChar: ecaron
Encoding: 588 283 488
Width: 1207
VWidth: 0
Flags: W
HStem: -16 238<559.738 925.392> 502 174<437.967 847.967> 950 236<530.869 764.523>
VStem: 77.793 360.174<351.604 502 676 823.575> 847.967 283.993<676 864.012>
LayerCount: 2
Fore
SplineSet
543.97 1308.27 m 0
 235.97 1927.27 l 0
 527.97 1927.27 l 0
 669.97 1483.27 l 0
 811.97 1927.27 l 4
 1105.97 1927.27 l 0
 797.97 1308.27 l 0
 543.97 1308.27 l 0
EndSplineSet
Refer: 61 101 N 1 0 0 1 0 0 3
EndChar

StartChar: ncaron
Encoding: 590 328 490
Width: 1242
VWidth: 0
Flags: W
HStem: 0.00488281 21<100 452 798 1150> 942.005 233.995<558.395 753.941> 1140 20<100 375.64>
VStem: 100 352<0.00488281 903.419> 798 352<0.00488281 895.987>
LayerCount: 2
Fore
SplineSet
489.504 1308 m 0x98
 181.504 1927 l 0
 473.504 1927 l 0
 615.504 1483 l 0
 757.504 1927 l 4
 1051.5 1927 l 0
 743.504 1308 l 0
 489.504 1308 l 0x98
EndSplineSet
Refer: 70 110 N 1 0 0 1 0 0 3
EndChar

StartChar: rcaron
Encoding: 591 345 491
Width: 811
VWidth: 0
Flags: W
HStem: 0 21<106 458> 926 257<559.959 798.963> 1140 20<106 413.755>
VStem: 106 352<0 870.6>
LayerCount: 2
Fore
SplineSet
337.5 1308 m 0x90
 29.5 1927 l 0
 321.5 1927 l 0
 463.5 1483 l 0
 605.5 1927 l 4
 899.5 1927 l 0
 591.5 1308 l 0
 337.5 1308 l 0x90
EndSplineSet
Refer: 74 114 N 1 0 0 1 0 0 3
EndChar

StartChar: acute
Encoding: 594 180 494
Width: 1097
Flags: W
HStem: 308 667
VStem: 425 475
LayerCount: 2
Fore
SplineSet
552 308 m 1
 425 362 l 5
 628 975 l 5
 900 850 l 1
 552 308 l 1
EndSplineSet
EndChar

StartChar: cedilla
Encoding: 595 184 495
Width: 364
Flags: W
HStem: -612 148<-52.401 226.051> -186 88<101 179.764>
VStem: 241 193<-445.603 -246.998>
LayerCount: 2
Fore
SplineSet
-70 -558 m 5
 -70 -421 l 5
 -70 -420 10 -464 102 -464 c 0
 186.63 -464 241 -452.499 241 -348 c 0
 241 -240 154 -186 -20 -186 c 1
 0 76 l 1
 121 76 l 1
 101 -98 l 1
 197.28 -98 432.891 -146.803 434 -342 c 0
 435 -518 333.4 -612 144 -612 c 0
 21 -612 -71 -558 -70 -558 c 5
EndSplineSet
EndChar

StartChar: ring
Encoding: 596 730 496
Width: 290
Flags: W
HStem: 309.775 136.225<63.2041 224.753> 631 142.225<61.6673 226.211>
VStem: -102.25 153.25<457.463 620.643> 237 155.25<456.51 620.088>
LayerCount: 2
Fore
SplineSet
392.25 542.65 m 4
 392.25 399.519 293.816 309.775 146.15 309.775 c 4
 -0.0625 309.775 -102.25 399.37 -102.25 543.225 c 4
 -102.25 690.325 3.8877 773.225 145.575 773.225 c 4
 286.302 773.225 392.25 691.307 392.25 542.65 c 4
51 541 m 0
 51 511.4 65.21 446 144.5 446 c 0
 223.248 446 237 508.532 237 539.5 c 0
 237 570.372 224.205 631 143 631 c 0
 81.667 631 51 601 51 541 c 0
EndSplineSet
EndChar

StartChar: tilde
Encoding: 597 732 497
Width: 653
Flags: W
HStem: 310 221<358.973 548.225> 425 229<105.996 293.467>
VStem: -110.5 209<316 420.317> 554.5 209<533.746 635>
LayerCount: 2
Fore
SplineSet
120.5 654 m 0x70
 291.5 654 373.5 531 486.5 531 c 0
 531.5 531 554 550 554.5 635 c 1
 763.5 635 l 1
 763.5 439 698.5 324 567.5 310 c 1
 542.5 310 l 2xb0
 374.5 310 249.5 425 166.5 425 c 0
 126.5 425 99 410 98.5 316 c 1
 -110.5 316 l 1
 -110.5 536 -33.5 654 120.5 654 c 0x70
EndSplineSet
EndChar

StartChar: breve
Encoding: 598 728 498
Width: 698
Flags: W
HStem: 0 183<592.25 959.75>
VStem: 302 200<262.13 360> 1050 200<262.13 360>
LayerCount: 2
Back
SplineSet
776 203 m 4
 893 203 989 241 1080 290 c 5
 1153 141 l 5
 1086 47 960 0 776 0 c 4
 592 0 466 47 399 141 c 5
 472 290 l 5
 563 241 659 203 776 203 c 4
EndSplineSet
Fore
SplineSet
776 183 m 4
 982 182 1030 272 1050 360 c 5
 1250 360 l 5
 1208 108 1050 0 776 0 c 4
 502 0 344 108 302 360 c 5
 502 360 l 5
 522 272 568 184.01 776 183 c 4
EndSplineSet
EndChar

StartChar: registered
Encoding: 625 174 524
Width: 1366
Flags: W
HStem: 574 112<486.607 875.942> 1060 100<617 647> 1316 98<617 783.137> 1528 114<486.607 875.07>
VStem: 127 120<913.207 1294.72> 495 118<818 1060 1160 1316> 787 118<1171.17 1305.01> 1117 122<923.309 1292.19>
LayerCount: 2
Fore
SplineSet
661 1160 m 2
 739 1160 787 1175 787 1245 c 0
 787 1301 755 1316 617 1316 c 1
 617 1160 l 1
 661 1160 l 2
924 851 m 2
 810 795 l 1
 647 1060 l 1
 613 1060 l 1
 613 818 l 1
 495 818 l 1
 495 1414 l 1
 616 1414 l 2
 776 1414 905 1382 905 1250 c 0
 905 1160 871 1113 758 1082 c 1
 924 851 l 2
127 1108 m 0
 127 1399 363 1642 682 1642 c 0
 995 1642 1239 1406 1239 1108 c 0
 1239 810 995 574 682 574 c 0
 363 574 127 816 127 1108 c 0
681 1528 m 0
 428 1528 247 1342 247 1106 c 0
 247 870 428 686 681 686 c 0
 936 686 1117 873 1117 1106 c 0
 1117 1345 932 1528 681 1528 c 0
EndSplineSet
EndChar

StartChar: ogonek
Encoding: 626 731 525
Width: 411
Flags: W
HStem: -432 177.071<140.043 380.11> -372 182<331.827 414.5>
VStem: -52.5 171.486<-232.107 -42.6377>
LayerCount: 2
Back
SplineSet
98.1768 700 m 0
 99.1768 855 37.1768 974 -102.823 974 c 0
 -244.823 974 -312.823 838 -312.823 700 c 0
 98.1768 700 l 0
258 338 m 0
 324 104 l 0
 212.007 47 78.1768 9 -93.8232 8 c 0
 -447.823 6 -678.997 245 -671.997 610 c 0
 -663.997 984 -421.997 1210 -96.8232 1210 c 0
 206.179 1210 385.17 995 382.17 690 c 0
 382.17 526 l 0
 -311.823 526 l 0
 -307.997 370 -208.997 245 -37.9971 246 c 0
 83.0176 246.708 184.003 284 258 338 c 0
EndSplineSet
Fore
SplineSet
118.986 -136.413 m 0xa0
 118.986 -188.197 142.334 -254.929 235.727 -254.929 c 0xa0
 327.659 -254.929 411.222 -190 414.5 -190 c 1
 414.5 -372 l 1x60
 412.852 -372 327.948 -432 197 -432 c 0
 77.9482 -432 -52.5 -363.944 -52.5 -200 c 0
 -52.5 -3.2002 107.17 89.7656 280.5 128 c 1
 280.5 80 l 1
 204.166 51.9591 118.986 -39.7127 118.986 -136.413 c 0xa0
EndSplineSet
EndChar

StartChar: hungarumlaut
Encoding: 627 733 526
Width: 1482
Flags: W
HStem: 18 573<829.525 882.5>
LayerCount: 2
Fore
SplineSet
706.5 18 m 1
 831.5 591 l 1
 1097.5 591 l 1
 825.5 18 l 1
 706.5 18 l 1
504.5 18 m 1
 384.5 18 l 1
 409.5 251 432.5 442 453.5 591 c 1
 708.5 591 l 1
 504.5 18 l 1
EndSplineSet
EndChar

StartChar: ogonek
Encoding: 628 731 527
Width: 411
Flags: W
HStem: -510 237<1351.46 1662.72>
VStem: 1088 245<-247.94 -60.7125>
LayerCount: 2
Fore
SplineSet
1333 -158 m 0
 1333 -227 1362 -273 1481 -273 c 0
 1546 -273 1594 -260 1631 -244 c 1
 1728 -196 l 1
 1728 -454 l 1
 1658 -503 1530 -510 1486 -510 c 0
 1272 -510 1088 -395 1088 -176 c 0
 1088 51 1280 159 1472 202 c 1
 1534 214 l 1
 1534 32 l 1
 1409 -14 1333 -82 1333 -158 c 0
EndSplineSet
EndChar

StartChar: NameMe.533
Encoding: 633 -1 531
Width: 1227
Flags: W
HStem: -497 248<369.247 860.493> 965 221<464.665 708.191 1006.51 1241.66>
VStem: 37.6631 282<-280.047 -47.1913> 101.663 324<697.394 924.315> 746.663 310.997<697.949 926.564> 891.663 291.997<-212.588 -34.7877>
LayerCount: 2
Fore
SplineSet
1057.66 804 m 0xd8
 1057.66 529.154 831.75 469.677 708.663 439 c 0
 383.663 358 l 0
 327.059 344.296 302.663 352 302.663 312 c 0
 302.663 273.049 328.021 271.677 396.663 266 c 0
 662.663 244 l 0
 1081.86 209.329 1183.66 72 1183.66 -136 c 0
 1183.66 -422.184 959.601 -497 638.663 -497 c 0
 160.227 -497 37.6631 -351.095 37.6631 -209 c 0xe4
 37.6631 -65.8301 125.663 45 257.663 87 c 0
 155.663 93 64.6631 139 64.6631 283 c 0
 64.6631 442 185.663 477 359.663 507 c 0
 218.663 534 101.663 664.046 101.663 792 c 0
 101.663 1047.52 298.256 1186 559.163 1186 c 0
 696.163 1186 794.996 1166.67 855.663 1128 c 0
 940.33 1165.33 1028.99 1184 1121.66 1184 c 0
 1241.66 1184 l 0
 1241.66 965 l 0
 1004.66 965 l 0
 1004.69 965.01 l 0
 1006.27 965.01 1057.66 881.375 1057.66 804 c 0xd8
319.663 -129 m 0
 319.663 -237 499.942 -249 620.663 -249 c 0
 769.019 -249 891.663 -235 891.663 -140 c 0
 891.663 -59.3525 866.403 -3.2627 668.663 14 c 0
 416.663 36 l 0
 371.663 0 319.663 -38.6367 319.663 -129 c 0
577.663 666 m 0
 686.824 666 746.663 699.239 746.663 803 c 0xc8
 746.663 908.333 693.041 965 587.797 965 c 0
 482.552 965 425.663 906.572 425.663 803 c 0
 425.663 715.667 478.33 666 577.663 666 c 0
EndSplineSet
EndChar

StartChar: hyphen
Encoding: 45 45 532
Width: 895
Flags: W
HStem: 604 232<91 794>
LayerCount: 2
Fore
SplineSet
795 604 m 5
 91 604 l 5
 89 836 l 1
 794 836 l 1
 795 604 l 5
EndSplineSet
EndChar

StartChar: less
Encoding: 60 60 533
Width: 1194
Flags: W
LayerCount: 2
Fore
SplineSet
132 475.611 m 13
 132 712.389 l 21
 972 1225 l 5
 973 924 l 5
 365 594 l 5
 973 264 l 5
 972 -37 l 5
 132 475.611 l 13
EndSplineSet
EndChar

StartChar: greater
Encoding: 62 62 534
Width: 1194
Flags: W
LayerCount: 2
Fore
SplineSet
973 475.611 m 21
 133 -37 l 5
 132 264 l 5
 740 594 l 5
 132 924 l 5
 133 1225 l 5
 973 712.389 l 13
 973 475.611 l 21
EndSplineSet
EndChar

StartChar: equal
Encoding: 61 61 535
Width: 1130
Flags: W
HStem: 240 262<63 1059> 584 262<63 1059>
LayerCount: 2
Fore
SplineSet
1059 584 m 5
 63 584 l 5
 63 846 l 5
 1059 846 l 5
 1059 584 l 5
1059 240 m 1
 63 240 l 1
 63 502 l 1
 1059 502 l 1
 1059 240 l 1
EndSplineSet
EndChar

StartChar: dollar
Encoding: 36 36 536
Width: 1347
Flags: W
HStem: -147 110<543.391 645> 1320.34 278.73<457.094 936.24> 1599.07 92.9301<672 767.803>
VStem: 79.89 332.4<1088.09 1275.58> 909.716 338.784<324.591 562.032>
LayerCount: 2
Fore
SplineSet
532 -147 m 1
 672 1692 l 1
 780 1692 l 1
 645 -147 l 1
 532 -147 l 1
1248.5 485.227 m 0
 1248.5 697.098 1091.01 839.025 893 913 c 2
 537 1046 l 2
 423.666 1088.34 412.29 1132.91 412.29 1171.08 c 0
 410.731 1299.9 517.004 1320.27 649.95 1320.34 c 0
 839.82 1320.34 1008 1263 1089 1206 c 1
 1179 1482 l 1
 1078.27 1533.77 870.387 1598.13 599.584 1599.07 c 0
 317.91 1599.07 79.89 1477.94 79.89 1168.11 c 0
 79.89 984.377 182.88 866.71 346 799 c 2
 770 623 l 2
 879.621 577.497 909.716 517.39 909.716 437.113 c 0
 909.716 292 768 240 639 240 c 0
 528.5 240 261 324 195 363 c 1
 129.899 97.9697 l 17
 130.874 97.7441 479.659 -37 658.5 -37 c 0
 1017.59 -36.8956 1248.5 123.868 1248.5 485.227 c 0
EndSplineSet
EndChar

StartChar: quotedbl
Encoding: 34 34 537
Width: 1097
Flags: W
HStem: 308.589 643.273
VStem: 264 103.691<308.589 408.721> 596.062 103.692<308.589 408.722>
LayerCount: 2
Fore
SplineSet
596.062 308.589 m 5
 503.965 951.862 l 5
 770.821 951.8 l 5
 699.754 307.928 l 5
 596.062 308.589 l 5
264 308.589 m 1
 171.902 951.862 l 1
 438.759 951.8 l 1
 367.691 307.928 l 1
 264 308.589 l 1
EndSplineSet
EndChar

StartChar: multiply
Encoding: 634 215 538
Width: 1347
Flags: W
HStem: 0 21G<291.742 330.766 1019.48 1058.51> 1144 20G<289.795 330.766 1019.48 1060.46>
LayerCount: 2
Fore
SplineSet
675.124 756.348 m 1
 1037.25 1164 l 1
 1218.25 1008 l 1
 830.748 582 l 1
 1206.25 159 l 1
 1037.25 0 l 1
 675.124 407.652 l 1
 313 0 l 1
 144 159 l 1
 519.5 582 l 1
 132 1008 l 1
 313 1164 l 1
 675.124 756.348 l 1
EndSplineSet
EndChar

StartChar: Dcroat
Encoding: 169 272 539
Width: 1462
Flags: W
HStem: 0 243<475 825.164> 726 165<-1 789> 1354 223<475 806.955>
VStem: 104 371<243 1354> 1046 368<468.654 1111.91>
LayerCount: 2
Fore
SplineSet
789 726 m 5
 -1 726 l 5
 -1 891 l 5
 789 891 l 5
 789 726 l 5
EndSplineSet
Refer: 29 68 N 1 0 0 1 0 0 2
EndChar

StartChar: degree
Encoding: 176 176 540
Width: 792
Flags: W
HStem: -175 118<240.023 504.151> 323 118<240.023 504.151>
VStem: 33 131<16.7704 249.23> 583 131<16.7704 249.23>
LayerCount: 2
Fore
SplineSet
164 133 m 4
 164 23 267 -57 374 -57 c 4
 481 -57 583 23 583 133 c 4
 583 243 481 323 374 323 c 4
 267 323 164 243 164 133 c 4
33 133 m 0
 33 312 200 441 374 441 c 0
 549 441 714 312 714 133 c 0
 714 -46 549 -175 374 -175 c 0
 200 -175 33 -46 33 133 c 0
EndSplineSet
EndChar

StartChar: bar
Encoding: 124 124 541
Width: 1347
Flags: W
VStem: 516 310<-147 1667>
LayerCount: 2
Fore
SplineSet
516 -147 m 1
 517 1667 l 1
 825 1667 l 1
 826 -147 l 1
 516 -147 l 1
EndSplineSet
EndChar

StartChar: asciitilde
Encoding: 126 126 542
Width: 653
Flags: W
HStem: 310 221<358.973 548.225> 425 229<105.996 293.467>
VStem: -110.5 209<316 420.317> 554.5 209<533.746 635>
LayerCount: 2
Fore
SplineSet
120.5 654 m 0x70
 291.5 654 373.5 531 486.5 531 c 0
 531.5 531 554 550 554.5 635 c 1
 763.5 635 l 1
 763.5 439 698.5 324 567.5 310 c 1
 542.5 310 l 2xb0
 374.5 310 249.5 425 166.5 425 c 0
 126.5 425 99 410 98.5 316 c 1
 -110.5 316 l 1
 -110.5 536 -33.5 654 120.5 654 c 0x70
EndSplineSet
EndChar

StartChar: Lslash
Encoding: 635 321 543
Width: 1177
Flags: W
HStem: 0 242<477 1157> 726 165<-1 789> 1557 20<106 477>
VStem: 106 371<242 1577>
LayerCount: 2
Fore
SplineSet
789 726 m 5
 -1 726 l 5
 -1 891 l 5
 789 891 l 5
 789 726 l 5
EndSplineSet
Refer: 37 76 N 1 0 0 1 0 0 2
EndChar

StartChar: lslash
Encoding: 636 322 544
Width: 641
Flags: W
HStem: 0 21<145 496> 726 165<-1 789>
VStem: 145 351<0 1589>
LayerCount: 2
Fore
SplineSet
789 726 m 5
 -1 726 l 5
 -1 891 l 5
 789 891 l 5
 789 726 l 5
EndSplineSet
Refer: 68 108 N 1 0 0 1 0 0 2
EndChar

StartChar: caron
Encoding: 637 711 545
Width: 2048
Flags: W
HStem: 563 619<867 903 1147 1181>
LayerCount: 2
Fore
SplineSet
1181 563 m 4
 867 563 l 4
 579 1182 l 4
 903 1182 l 4
 1025 738 l 4
 1147 1182 l 4
 1469 1182 l 4
 1181 563 l 4
EndSplineSet
EndChar

StartChar: braceleft
Encoding: 123 123 546
Width: 712
Flags: W
HStem: -210 189<584.244 662.496> 550 189<115.495 189.936> 1310 189<584.201 662.496>
VStem: 224.495 330.001<8.03533 520.314 767.795 1280.96>
CounterMasks: 1 e0
LayerCount: 2
Fore
SplineSet
553.496 982 m 4
 552.496 734 451.495 673 371.739 644.957 c 5
 451.495 615 554.496 540 554.496 307 c 4
 554.496 1 584.496 -21 662.496 -21 c 5
 662.496 -210 l 5
 455.495 -209 224.495 -138 224.495 262 c 4
 224.495 486 193.495 550 115.495 550 c 5
 115.495 739 l 5
 193.495 739 223.495 805 223.495 1027 c 4
 223.495 1427 455.495 1498 662.496 1499 c 5
 662.496 1310 l 5
 584.496 1310 554.729 1288 553.496 982 c 4
EndSplineSet
EndChar

StartChar: braceright
Encoding: 125 125 547
Width: 712
Flags: W
HStem: -210 189<49.5088 127.761> 550 189<522.069 596.51> 1310 189<49.5088 127.804>
VStem: 157.509 330.001<8.03533 520.314 767.795 1280.96>
CounterMasks: 1 e0
LayerCount: 2
Fore
SplineSet
158.509 982 m 4
 157.276 1288 127.509 1310 49.5088 1310 c 5
 49.5088 1499 l 5
 256.51 1498 488.51 1427 488.51 1027 c 4
 488.51 805 518.51 739 596.51 739 c 5
 596.51 550 l 5
 518.51 550 487.51 486 487.51 262 c 4
 487.51 -138 256.51 -209 49.5088 -210 c 5
 49.5088 -21 l 5
 127.509 -21 157.509 1 157.509 307 c 4
 157.509 540 260.51 615 340.266 644.957 c 5
 260.51 673 159.509 734 158.509 982 c 4
EndSplineSet
EndChar

StartChar: uni00AD
Encoding: 173 173 548
Width: 1130
Flags: W
HStem: 584 262<183 939>
LayerCount: 2
Fore
SplineSet
939 584 m 1
 183 584 l 5
 183 846 l 5
 939 846 l 1
 939 584 l 1
EndSplineSet
EndChar

StartChar: divide
Encoding: 638 247 549
Width: 1130
Flags: W
HStem: 137.199 364.801<442.653 681.347> 580 262<63 1059> 919.199 364.801<442.653 681.347>
VStem: 379.6 364.8<200.253 438.946 982.251 1220.95>
LayerCount: 2
Fore
SplineSet
379.6 1101.6 m 0
 379.6 1202.29 461.314 1284 562 1284 c 0
 662.686 1284 744.4 1202.29 744.4 1101.6 c 0
 744.4 1000.91 662.686 919.199 562 919.199 c 0
 461.314 919.199 379.6 1000.91 379.6 1101.6 c 0
379.6 319.599 m 0
 379.6 420.285 461.314 502 562 502 c 0
 662.686 502 744.4 420.285 744.4 319.599 c 0
 744.4 218.914 662.686 137.199 562 137.199 c 0
 461.314 137.199 379.6 218.914 379.6 319.599 c 0
1059 580 m 5
 63 580 l 5
 63 842 l 5
 1059 842 l 5
 1059 580 l 5
EndSplineSet
EndChar

StartChar: yen
Encoding: 639 165 550
Width: 1277
Flags: W
HStem: 0 21G<462 810> 402 120<138 460.096 811.926 1134> 651 120<138 341.592 931.841 1134> 1557 20G<-42 343.833 928.167 1320>
VStem: 462 348<0 402>
LayerCount: 2
Fore
SplineSet
636 811 m 1
 936 1577 l 1
 1320 1577 l 1
 931.841 771 l 1
 1134 771 l 1
 1134 651 l 1
 874.051 651 l 1
 811.926 522 l 1
 1134 522 l 1
 1134 402 l 1
 810 402 l 1
 810 0 l 1
 462 0 l 1
 462 402 l 1
 138 402 l 1
 138 522 l 1
 460.096 522 l 1
 398.703 651 l 1
 138 651 l 1
 138 771 l 1
 341.592 771 l 1
 -42 1577 l 1
 336 1577 l 1
 636 811 l 1
EndSplineSet
EndChar

StartChar: brokenbar
Encoding: 640 166 551
Width: 1347
Flags: W
VStem: 516 310<-147 599 921 1667>
LayerCount: 2
Fore
SplineSet
516 -147 m 1
 517 599 l 1
 825 599 l 1
 826 -147 l 1
 516 -147 l 1
516 921 m 1
 517 1667 l 1
 825 1667 l 1
 826 921 l 1
 516 921 l 1
EndSplineSet
EndChar

StartChar: cent
Encoding: 641 162 552
Width: 1152
Flags: W
HStem: -14 236<562.64 904.136> 950 236<536.363 897.205>
VStem: 78 352<365.868 834.018> 620 164<-147 1377>
LayerCount: 2
Fore
SplineSet
620 -147 m 5
 621 1377 l 5
 783 1377 l 5
 784 -147 l 5
 620 -147 l 5
EndSplineSet
Refer: 59 99 N 1 0 0 1 0 0 2
EndChar

StartChar: exclamdown
Encoding: 642 161 553
Width: 792
Flags: W
HStem: -1.38965 21G<167.537 586.463> 1157 20G<270.227 483.773> 1238 316<252.76 494.333>
VStem: 199 349<1290.75 1501.25> 272 210<1015.28 1177>
LayerCount: 2
Fore
SplineSet
199 1396 m 4xf0
 199 1487.81 284.194 1554 373.5 1554 c 4
 463.056 1554 548 1487.81 548 1396 c 4
 548 1304.19 463.056 1238 373.5 1238 c 4
 284.194 1238 199 1304.19 199 1396 c 4xf0
586.463 -1.38965 m 1
 167.537 -1.38965 l 1
 272 1177 l 1
 482 1177 l 1xe8
 586.463 -1.38965 l 1
EndSplineSet
EndChar

StartChar: uni00B5
Encoding: 643 181 554
Width: 1271
Flags: W
HStem: -15 234<488.464 758.946> 1 21G<938.278 1195.5> 1141 20G<109 459 843.5 1195.5>
VStem: 109 350<-428 16 257.15 1161> 843.5 352<258.343 1161>
LayerCount: 2
Back
SplineSet
497 433 m 0
 495.913 303.203 534.16 223.815 641.5 218 c 4
 725.457 223.478 787.29 248.978 827 294.5 c 4
 827 1160 l 4
 1179 1160 l 4
 1179 0 l 4
 931 0 l 4
 854 167 l 4
 831 88 747 -16 573 -16 c 4
 278.674 -16 144.91 146.156 145 459 c 0
 145 1160 l 0
 497 1160 l 0
 497 433 l 0
EndSplineSet
Fore
SplineSet
589.5 -15 m 0xb8
 528 -15 460 14 459 16 c 0
 459 -488 l 0
 109 -428 l 0
 109 -428 109 541.29 109 1161 c 25
 459 1161 l 17
 459 277 l 1
 456 279 577.254 215.115 658 219 c 24xb8
 736.165 222.761 803.79 249.978 843.5 295.5 c 0
 843.5 1161 l 0
 1195.5 1161 l 0
 1195.5 1 l 0
 947.5 1 l 0x78
 870.5 168 l 0
 847.5 89 763.5 -15 589.5 -15 c 0xb8
EndSplineSet
EndChar

StartChar: logicalnot
Encoding: 645 172 556
Width: 1130
Flags: W
HStem: 584 262<63 867>
VStem: 867 192<224 584>
LayerCount: 2
Fore
SplineSet
867 584 m 1
 63 584 l 1
 63 846 l 1
 1059 846 l 1
 1059 584 l 1
 1059 224 l 1
 867 224 l 1
 867 584 l 1
EndSplineSet
EndChar

StartChar: sterling
Encoding: 646 163 557
Width: 1058
Flags: W
HStem: 0 232<315 915.99> 563 109<457.699 858> 1061 260.85<405.339 744.761>
VStem: 51 309.127<781.274 1015.72> 187 270.699<365.04 563>
LayerCount: 2
Back
SplineSet
607 786 m 4
 607 880 563 930 453 930 c 4
 352 930 143 855 47 803 c 5
 47 1059 l 5
 161 1134 354 1191 475 1191 c 4
 696 1191 940 1104 940 834 c 4
 940 676 871 564 681 396 c 6
 537 268 l 5
 909 268 l 5
 909 0 l 5
 51 0 l 5
 51 217 l 5
 376 492 l 6
 466 568 607 675 607 786 c 4
EndSplineSet
Fore
SplineSet
187 564 m 1xe8
 60 563 l 1
 60 667 l 1
 162.769 667 l 1
 162 662 51 811 51 956 c 4
 51 1166 213 1321.85 512.437 1321.85 c 4
 807 1321.85 951 1186 951 1189 c 5
 818.156 970.756 l 5
 818.156 970.756 722 1061 554.353 1061 c 4
 390 1061 360.127 975 360.127 909 c 4xf0
 360.127 799 441 670 439.613 672 c 1
 858 672 l 1
 858 563 l 1
 457.699 563 l 1
 459 336 315 232 315 232 c 1
 915.99 232 l 1
 915.99 0 l 1
 44.9902 0 l 1
 42 226 l 1
 123 335 l 1
 123.244 336.985 187 405 187 564 c 1xe8
EndSplineSet
EndChar

StartChar: paragraph
Encoding: 648 182 559
Width: 1364
Flags: W
HStem: 0 21G<598 857 992 1248> 1428 149<857 992>
VStem: 39.3486 817.651<951.17 1350.99> 598 259<0 710.607> 992 256<0 1428>
LayerCount: 2
Fore
SplineSet
1248 1578 m 1xe8
 1248 0 l 1
 992 0 l 5
 992 1428 l 5
 857 1428 l 1
 857 0 l 1
 598 0 l 1
 598 710.607 l 1xd8
 301 710.607 39.3486 810.378 39.3486 1155 c 0
 39.3486 1515.11 354.973 1577 642.205 1577 c 2
 747 1577 l 1
 1248 1578 l 1xe8
EndSplineSet
EndChar

StartChar: periodcentered
Encoding: 183 183 560
Width: 461
Flags: W
HStem: 522.6 364.801<111.653 350.347>
VStem: 48.5996 364.8<585.653 824.347>
LayerCount: 2
Fore
SplineSet
48.5996 705 m 4
 48.5996 805.686 130.314 887.401 231 887.401 c 4
 331.686 887.401 413.4 805.686 413.4 705 c 4
 413.4 604.314 331.686 522.6 231 522.6 c 4
 130.314 522.6 48.5996 604.314 48.5996 705 c 4
EndSplineSet
EndChar

StartChar: guillemotleft
Encoding: 649 171 561
Width: 1194
Flags: W
LayerCount: 2
Fore
SplineSet
726 435.611 m 9
 726 672.389 l 17
 1340 1145 l 5
 1340 844 l 5
 959 554 l 1
 1340 264 l 5
 1340 -37 l 5
 726 435.611 l 9
132 435.611 m 9
 132 672.389 l 17
 746 1145 l 5
 746 844 l 5
 365 554 l 1
 746 264 l 5
 746 -37 l 5
 132 435.611 l 9
EndSplineSet
EndChar

StartChar: guillemotright
Encoding: 650 187 562
Width: 1194
Flags: W
LayerCount: 2
Fore
SplineSet
746 435.611 m 17
 132 -37 l 5
 132 264 l 5
 513 554 l 1
 132 844 l 5
 132 1145 l 5
 746 672.389 l 9
 746 435.611 l 17
1340 435.611 m 17
 726 -37 l 5
 726 264 l 5
 1107 554 l 1
 726 844 l 5
 726 1145 l 5
 1340 672.389 l 9
 1340 435.611 l 17
EndSplineSet
EndChar

StartChar: onequarter
Encoding: 651 188 563
Width: 1975
Flags: W
HStem: 96 205<1313.46 1489.46 1733.46 1872.46>
VStem: 258.46 264<411 1125> 1489.46 244<-124 96 303 597>
LayerCount: 2
Fore
SplineSet
447.228 -29.1152 m 1
 1152.86 1540.82 l 1
 1379.46 1458 l 1
 666.156 -106.832 l 1
 447.228 -29.1152 l 1
1526.46 1023 m 5
 1733.46 970 l 5
 1733.46 303 l 5
 1872.46 303 l 5
 1872.46 96 l 5
 1733.46 96 l 5
 1733.46 -125 l 5
 1489.46 -124 l 5
 1489.46 96 l 5
 1040.46 96 l 5
 1007.46 257 l 5
 1526.46 1023 l 5
1313.46 301 m 5
 1489.46 301 l 5
 1489.46 597 l 5
 1313.46 301 l 5
258.46 411 m 1
 258.46 1125 l 1
 133.46 1071 l 1
 58.46 1261 l 1
 344.46 1373 l 1
 522.46 1333 l 1
 522.46 411 l 1
 258.46 411 l 1
EndSplineSet
EndChar

StartChar: onehalf
Encoding: 652 189 564
Width: 2090
Flags: W
HStem: 96 214<1672 1970> 840 209<1425.14 1708.02>
VStem: 258.465 264<411 1125> 1728 266<622.79 820.975>
LayerCount: 2
Fore
SplineSet
447.232 -29.1152 m 5
 1152.87 1540.82 l 5
 1379.46 1458 l 5
 666.161 -106.832 l 5
 447.232 -29.1152 l 5
258.465 411 m 1
 258.465 1125 l 1
 133.465 1071 l 1
 58.4648 1261 l 1
 344.465 1373 l 1
 522.465 1333 l 1
 522.465 411 l 1
 258.465 411 l 1
1728 725 m 4
 1728 800 1692 840 1604 840 c 4
 1497 840 1333 756 1333 756 c 5
 1261 947 l 5
 1262 947 1454 1049 1622 1049 c 4
 1799 1049 1994 979 1994 763 c 4
 1994 637 1939 548 1787 413 c 6
 1672 310 l 5
 1970 310 l 5
 1970 96 l 5
 1283 96 l 5
 1283 270 l 5
 1543 489 l 6
 1615 550 1728 636 1728 725 c 4
EndSplineSet
EndChar

StartChar: threequarters
Encoding: 653 190 565
Width: 2067
Flags: W
HStem: 96 205<1313.46 1489.46 1733.46 1872.46> 409 206<-9.11277 360.267> 889 197<150 325.538> 1302 209<37.7742 353.349>
VStem: 369 249<1129.1 1276.9> 387 259<641.356 829.062> 1489.46 244<-124 96 303 597>
LayerCount: 2
Fore
SplineSet
1526.46 1023 m 5xf2
 1733.46 970 l 5
 1733.46 303 l 5
 1872.46 303 l 5
 1872.46 96 l 5
 1733.46 96 l 5
 1733.46 -125 l 5
 1489.46 -124 l 5
 1489.46 96 l 5
 1040.46 96 l 5
 1007.46 257 l 5
 1526.46 1023 l 5xf2
1313.46 301 m 5
 1489.46 301 l 5
 1489.46 597 l 5
 1313.46 301 l 5
447.228 -29.1152 m 1
 1152.86 1540.82 l 1
 1379.46 1458 l 1
 666.156 -106.832 l 1
 447.228 -29.1152 l 1
369 1213 m 0xfa
 369 1275 312 1302 237 1302 c 0
 138 1302 9 1246 9 1246 c 2
 -82 1429 l 1
 -80 1428 47 1511 217 1511 c 0
 452 1511 613 1434 618 1208 c 0xfa
 619 1112 559 1013 456 987 c 1
 566 960 646 853 646 741 c 0
 646 508 469 409 232 409 c 0
 50 409 -67 463 -67 463 c 1
 -1 665 l 2
 -1 665 120 615 224 615 c 0
 326 615 387 644 387 738 c 0xf6
 387 837 270 893 150 889 c 1
 150 1086 l 1
 262 1086 369 1119 369 1213 c 0xfa
EndSplineSet
EndChar

StartChar: Eth
Encoding: 208 208 566
Width: 1462
Flags: W
HStem: 0 243<475 825.164> 684 232<0 876> 1354 223<475 806.955>
VStem: 104 371<243 1354> 1046 368<468.654 1111.91>
LayerCount: 2
Fore
SplineSet
876 684 m 5
 0 684 l 5
 0 916 l 5
 876 916 l 5
 876 684 l 5
EndSplineSet
Refer: 29 68 N 1 0 0 1 0 0 2
EndChar

StartChar: Thorn
Encoding: 222 222 567
Width: 1289
Flags: W
HStem: 165 234<544.668 788.831> 1123 236<553.396 768.063> 1558 20G<100 432.053>
VStem: 100 351<-219 291 458.983 1083.47> 100 333<1201 1578> 858 353<478.551 1019.41>
LayerCount: 2
Back
SplineSet
1077 0 m 5
 1077 725 l 5
 487 725 l 5
 487 0 l 5
 116 0 l 5
 116 1577 l 5
 487 1577 l 5
 487 910 l 5
 1077 910 l 5
 1077 1577 l 5
 1445 1577 l 5
 1445 0 l 5
 1077 0 l 5
EndSplineSet
Fore
SplineSet
724 165 m 0xec
 606.737 165 510 210 451 291 c 0
 451 -219 l 4
 100 -219 l 4xf4
 100 1578 l 0
 432 1578 l 0
 433 1201 l 0
 495 1308 619 1359 736 1359 c 0
 1061 1359 1211 1103 1211 746 c 0
 1211 363 1007 165 724 165 c 0xec
858 770 m 0
 858 947 818 1123 656 1123 c 0
 531 1123 487 1083 451 1046 c 0
 451 495 l 0
 507 440 586 399 687 399 c 0
 845 399 858 599 858 770 c 0
EndSplineSet
EndChar

StartChar: ae
Encoding: 230 230 568
Width: 1811
Flags: W
HStem: -18 235<422.164 669.101 1181 1520.73> 502 174<1062.08 1452> 547 182<427.189 734.079> 936 250<294.235 697.094 1131.03 1390.23>
VStem: 49.0791 328<261.583 495.911> 734.079 328.001<337.813 502 717 860.906> 1452 284<676 864.018>
LayerCount: 2
Back
SplineSet
377.249 385 m 4
 377.249 279 431.249 217 525.249 217 c 4
 607.249 217 667.249 261 722.249 310 c 5
 722.249 539 l 5
 691.249 543 653.249 547 616.249 547 c 4
 446.249 547 377.249 506 377.249 385 c 4
1620 314 m 5
 1686 80 l 5
 1574 23 1440.17 -15 1268.17 -16 c 4
 1064.72 -17.1494 914.391 61.3054 824.653 197.533 c 5
 738.002 34.1014 601.615 -18 448.249 -18 c 4
 193.249 -18 49.249 117 49.249 373 c 4
 49.249 664 294.249 729 573.249 729 c 4
 622.249 729 679.249 725 722.249 717 c 5
 722.249 844 717.249 936 567.249 936 c 4
 395.249 936 174.249 855 174.249 855 c 5
 126.249 1073 l 5
 235.249 1142 421.249 1186 579.249 1186 c 4
 746.938 1186 857.425 1144.98 928.931 1075.33 c 5
 1016.7 1147.27 1130.56 1186 1265.17 1186 c 4
 1568.18 1186 1744.17 971.015 1744.17 666 c 6
 1744.17 502 l 5
 1050.25 502 l 5
 1050.25 499.32 l 5
 1055.14 344.571 1153.98 221.006 1324 222 c 4
 1445.01 222.708 1546 260 1620 314 c 5
1460.17 676 m 5
 1461.17 831 1399.17 950 1259.17 950 c 4
 1126.13 950 1058.04 830.607 1049.99 702.043 c 4
 1050.15 693.426 1050.24 684.743 1050.25 676 c 5
 1460.17 676 l 5
EndSplineSet
Fore
SplineSet
377.079 385 m 0xbe
 377.079 279 439.079 217 533.079 217 c 0
 615.079 217 679.079 261 734.079 310 c 1
 734.079 539 l 1
 703.079 543 661.079 547 624.079 547 c 0
 454.079 547 377.079 506 377.079 385 c 0xbe
1611.83 314 m 5
 1677.83 80 l 5
 1565.83 23 1442 -15 1270 -16 c 0
 1066.55 -17.1494 952.83 50 874.83 200 c 1
 774.83 30 601.444 -18 448.079 -18 c 0
 193.079 -18 49.0791 117 49.0791 373 c 0
 49.0791 664 302.079 729 581.079 729 c 0xbe
 630.079 729 691.079 725 734.079 717 c 1
 734.079 844 725.079 936 575.079 936 c 0
 403.079 936 174.079 855 174.079 855 c 1
 126.079 1073 l 1
 235.079 1142 429.079 1186 587.079 1186 c 0
 737.83 1186 861.83 1146 927.83 1038 c 1
 999.83 1144 1132.39 1186 1267 1186 c 0
 1570.01 1186 1736 971.015 1736 666 c 6
 1736 502 l 5
 1062.08 502 l 1xde
 1062.08 499.319 l 1
 1066.97 344.57 1155.81 221.006 1325.83 222 c 0
 1446.84 222.708 1537.83 260 1611.83 314 c 5
1452 676 m 5xde
 1453 831 1401 950 1261 950 c 0
 1127.96 950 1069.87 830.607 1061.82 702.043 c 0
 1061.98 693.426 1062.07 684.743 1062.08 676 c 1
 1452 676 l 5xde
EndSplineSet
EndChar

StartChar: thorn
Encoding: 254 254 569
Width: 1289
Flags: W
HStem: -406 21G<100 451> -16 234<544.668 788.831> 942 236<545.166 768.063> 1558 20G<100 447>
VStem: 100 351<-406 110 277.983 902.473 1041 1578> 858 353<297.551 838.406>
LayerCount: 2
Back
SplineSet
1077 0 m 5
 1077 725 l 5
 487 725 l 5
 487 0 l 5
 116 0 l 5
 116 1577 l 5
 487 1577 l 5
 487 910 l 5
 1077 910 l 5
 1077 1577 l 5
 1445 1577 l 5
 1445 0 l 5
 1077 0 l 5
EndSplineSet
Fore
SplineSet
724 -16 m 0
 606.737 -16 510 29 451 110 c 0
 451 -406 l 0
 100 -406 l 0
 100 1578 l 4
 447 1578 l 4
 447 1041 l 0
 501 1137 619 1178 736 1178 c 0
 1061 1178 1211 922 1211 565 c 0
 1211 182 1007 -16 724 -16 c 0
858 589 m 0
 858 766 818 942 656 942 c 0
 531 942 487 902 451 865 c 0
 451 314 l 0
 507 259 586 218 687 218 c 0
 845 218 858 418 858 589 c 0
EndSplineSet
EndChar

StartChar: Hbar
Encoding: 657 294 573
Width: 1561
Flags: W
HStem: 0 21<116 487 1077 1445> 725 185<487 1077> 1151 152<0 1561> 1557 20<116 487 1077 1445>
VStem: 116 371<0 725 910 1577> 1077 368<0 725 910 1577>
LayerCount: 2
Fore
SplineSet
1561 1151 m 5
 0 1151 l 5
 0 1303 l 5
 1561 1303 l 5
 1561 1151 l 5
EndSplineSet
Refer: 33 72 N 1 0 0 1 0 0 2
EndChar

StartChar: hbar
Encoding: 659 295 575
Width: 1271
Flags: W
HStem: 0 21<100 450 828 1180> 942 234<561.74 894.319> 1303 152<0 1170>
VStem: 100 350<0 900.356 1037 1589> 828 352<0 877.059>
LayerCount: 2
Fore
SplineSet
1170 1303 m 5
 0 1303 l 5
 0 1455 l 5
 1170 1455 l 5
 1170 1303 l 5
EndSplineSet
Refer: 64 104 N 1 0 0 1 0 0 2
EndChar

StartChar: Eng
Encoding: 175 330 590
Width: 1611
Flags: W
HStem: -561.76 257.76<867.694 1106.46> 0 21G<129 477> 1557 20G<129 533.17 1133 1482>
VStem: 129 348<0 1098> 1133 349<-275.506 -51.3818 483 1577>
LayerCount: 2
Fore
SplineSet
1482 1577 m 5
 1482 -93 l 6
 1482 -435.002 1316 -561.76 1085 -561.76 c 4
 887 -561.76 737 -463 737 -463 c 5
 832 -243 l 5
 832 -246 945.208 -304.835 1022 -304 c 4
 1114 -303 1133 -231.093 1133 -118 c 6
 1133 -51.3818 l 5
 477 1098 l 1
 477 0 l 1
 129 0 l 1
 129 1577 l 1
 522 1577 l 1
 1133 483 l 1
 1133 1577 l 1
 1482 1577 l 5
EndSplineSet
EndChar

StartChar: eng
Encoding: 191 331 591
Width: 1242
Flags: W
HStem: -471.76 257.76<534.694 773.461> 0.00488281 21G<100 452> 942.005 233.995<558.395 754.232> 1140 20G<100 375.64>
VStem: 100 352<0.00488281 903.419> 800 349<-185.506 895.987>
LayerCount: 2
Fore
SplineSet
800 727.005 m 2xec
 799.072 882.004 757 942.005 634.5 942.005 c 0xec
 556.244 942.005 491.71 911.027 452 865.505 c 1
 452 0.00488281 l 1
 100 0.00488281 l 1
 100 1160 l 1
 366 1160 l 1xdc
 433 1021 l 1
 486 1101 598.05 1176 737 1176 c 0
 1031.33 1176 1150.72 1013.84 1150 701 c 2
 1149 -3 l 2
 1148.51 -345.002 983 -471.76 752 -471.76 c 0
 554 -471.76 404 -373 404 -373 c 1
 499 -153 l 1
 499 -156 612.208 -214.835 689 -214 c 0
 781 -213 800 -141.095 800 -28 c 2
 800 727.005 l 2xec
EndSplineSet
EndChar

StartChar: tbar
Encoding: 187 359 593
Width: 996
Flags: W
HStem: -15.7598 257.76<579.281 813.771> 726 165<50 840> 1009 151<53 193 542 840> 1557 20<463.429 542>
VStem: 193 349<282.743 1009 1160 1411.26> 212 330<1160 1493>
LayerCount: 2
Fore
SplineSet
840 726 m 5xf0
 50 726 l 5
 50 891 l 5
 840 891 l 5
 840 726 l 5xf0
EndSplineSet
Refer: 76 116 N 1 0 0 1 0 0 2
EndChar

StartChar: dcroat
Encoding: 185 273 598
Width: 1285
Flags: W
HStem: -16 236<517.296 742.801> 0 21<928.843 1184> 952 234<497.989 721.674> 1280 165<495 1285>
VStem: 78 350<329.009 872.012> 834 350<257.468 892.017 1046 1590>
LayerCount: 2
Fore
SplineSet
1285 1280 m 1x3c
 495 1280 l 1
 495 1445 l 1
 1285 1445 l 1
 1285 1280 l 1x3c
EndSplineSet
Refer: 60 100 N 1 0 0 1 0 0 2
EndChar

StartChar: kgreenlandic
Encoding: 255 312 599
Width: 1289
Flags: W
HStem: 0 21G<105 458 857.696 1287> 1149 20G<105 458 837.868 1277>
VStem: 105 353<0 413 730 1169>
LayerCount: 2
Fore
SplineSet
458 413 m 5
 458 0 l 5
 105 0 l 1
 105 1169 l 1
 458 1169 l 5
 458 730 l 5
 856 1169 l 1
 1277 1169 l 1
 765 643 l 1
 1287 0 l 1
 872 -1 l 1
 528 480 l 1
 458 413 l 5
EndSplineSet
EndChar

StartChar: AE
Encoding: 198 198 601
Width: 1917
Flags: W
HStem: 0 223<1190 1869> 350 170<535 829> 742 197<1190 1769> 1374 203<1190 1859>
VStem: 829 361<223 350 520 742 939 1343.2>
LayerCount: 2
Fore
SplineSet
1859 1577 m 5
 1859 1374 l 5
 1190 1374 l 1
 1190 939 l 1
 1769 939 l 5
 1769 742 l 5
 1190 742 l 1
 1190 223 l 1
 1869 223 l 5
 1869 0 l 5
 829 0 l 1
 829 350 l 1
 488 350 l 1
 366 0 l 1
 7 0 l 1
 627 1577 l 1
 1859 1577 l 5
829 520 m 1
 829 1343.2 l 1
 535 520 l 1
 829 520 l 1
EndSplineSet
EndChar

StartChar: eth
Encoding: 240 240 602
Width: 1262
Flags: W
HStem: -16 236<517.658 737.666> 952 234<497.989 721.674>
VStem: 78 350<329.009 872.012> 834 350<331.603 877.072>
LayerCount: 2
Back
SplineSet
617 218 m 4
 768 218 837 340 837 584 c 4
 837 828 768 950 617 950 c 4
 466 950 397 828 397 584 c 4
 397 340 466 218 617 218 c 4
617 1186 m 4
 987 1186 1186 951 1186 582 c 4
 1186 215 988 -16 617 -16 c 4
 246 -16 48 215 48 582 c 4
 48 951 247 1186 617 1186 c 4
EndSplineSet
Fore
SplineSet
1143 1494 m 5
 425 1263 l 5
 383 1413 l 5
 1101 1644 l 5
 1143 1494 l 5
1184 612 m 4
 1184 171 952 -16 585 -16 c 4
 222 -16 78 260 78 586 c 4
 78 938 242 1186 525 1186 c 4
 687 1186 783 1116 834 1046 c 5
 810 1200 564 1470 381 1575 c 5
 531 1752 l 5
 825 1569 1184 1296 1184 612 c 4
428 586 m 4
 428 409 468 220 630 220 c 4
 780 220 834 390 834 555 c 6
 834 856 l 5
 778 911 700 952 599 952 c 4
 441 952 428 757 428 586 c 4
EndSplineSet
EndChar

StartChar: section
Encoding: 167 167 603
Width: 1045
Flags: W
HStem: -99.4033 146.312<296.971 675.948> 1421.24 144.41<326.431 698.718>
VStem: 122.32 153.698<646.563 854.956 1189.42 1369.68> 743.495 168.185<111.308 332.056 642.958 859.568>
LayerCount: 2
Fore
SplineSet
131.808 17.2939 m 5
 192.527 154.862 l 5
 276.018 82.7568 404.099 46.9092 483.793 46.9092 c 4
 625.157 46.9092 743.495 91.2959 743.495 220.325 c 4
 743.495 330.381 664.643 368.005 562.284 401.538 c 6
 402.202 455.616 l 6
 165.712 535.506 122.32 624.493 122.32 767.754 c 4
 122.32 847.973 174.502 968.889 376.585 991.659 c 5
 157.423 1077.05 122.32 1164.18 122.32 1281.98 c 4
 122.32 1395.83 211.503 1565.65 498.974 1565.65 c 4
 654.568 1565.65 818.702 1485.96 861.396 1448.96 c 5
 802.573 1313.28 l 5
 718.135 1379.7 613.772 1421.24 509.41 1421.24 c 4
 325.353 1421.24 278.12 1351.23 278.12 1271.54 c 4
 278.12 1214.61 305.635 1181.41 433.715 1135.87 c 6
 589.105 1079.89 l 6
 869.989 978.705 909.782 877.809 909.782 743.088 c 4
 909.782 627.339 814.907 530.566 661.21 519.182 c 5
 880.372 442.333 911.68 320.636 911.68 215.582 c 4
 911.68 -27.2979 685.878 -99.4033 496.128 -99.4033 c 4
 360.457 -99.4033 192.527 -33.9395 131.808 17.2939 c 5
510.833 596.979 m 4
 668.8 596.979 750.393 651.35 750.393 747.831 c 4
 750.393 894.608 596.601 903.425 511.308 903.425 c 4
 338.635 903.425 276.018 846.026 276.018 749.729 c 4
 276.018 641.097 364.252 596.979 510.833 596.979 c 4
EndSplineSet
EndChar

StartChar: fi
Encoding: 671 64257 604
Width: 1372
Flags: W
HStem: 0 21G<896 1246> 999.5 162<-0.399414 149.601 500.601 896> 1272 366<956.561 1187.44> 1346.5 259<530.882 784.994>
VStem: 149.601 350<1.5 999.5 1161.5 1311.95> 896 350<0 999.5 1335.26 1574.74>
LayerCount: 2
Fore
SplineSet
1246 1160 m 1xdc
 1246 0 l 1
 896 0 l 1
 896 999.5 l 1
 499.601 999.5 l 1
 499.601 1.5 l 1
 149.601 1.5 l 1
 149.601 999.5 l 1
 -0.399414 999.5 l 1
 -0.399414 1161.5 l 1
 149.601 1161.5 l 1
 148.601 1427.5 271.601 1605.5 557.601 1605.5 c 0
 642.924 1605.5 719.223 1593.27 786.601 1576 c 1
 786.601 1321.5 l 1
 786.601 1321.5 719.601 1346.5 637.601 1346.5 c 0
 545.688 1346.5 500.601 1309.5 500.601 1161.5 c 1
 1246 1160 l 1xdc
899.001 1455 m 0
 899.001 1556.02 970.985 1638 1072 1638 c 0
 1173.02 1638 1245 1556.02 1245 1455 c 0
 1245 1353.98 1173.02 1272 1072 1272 c 0xec
 970.985 1272 899.001 1353.98 899.001 1455 c 0
EndSplineSet
Ligature2: "'liga' Standard Ligatures lookup 0-1" f i
EndChar
